<?xml version="1.0" encoding="UTF-8" standalone="no"?>
<svg
   xmlns:dc="http://purl.org/dc/elements/1.1/"
   xmlns:cc="http://creativecommons.org/ns#"
   xmlns:rdf="http://www.w3.org/1999/02/22-rdf-syntax-ns#"
   xmlns:svg="http://www.w3.org/2000/svg"
   xmlns="http://www.w3.org/2000/svg"
   xmlns:sodipodi="http://sodipodi.sourceforge.net/DTD/sodipodi-0.dtd"
   xmlns:inkscape="http://www.inkscape.org/namespaces/inkscape"
   version="1.1"
   x="0px"
   y="0px"
   width="1117.6248"
   height="683.01202"
   viewBox="0 0 1117.6248 683.01202"
   id="svg2"
   inkscape:version="0.91 r13725"
   sodipodi:docname="lightning.svg">
  <metadata
     id="metadata21">
    <rdf:RDF>
      <cc:Work
         rdf:about="">
        <dc:format>image/svg+xml</dc:format>
        <dc:type
           rdf:resource="http://purl.org/dc/dcmitype/StillImage" />
        <dc:title></dc:title>
      </cc:Work>
    </rdf:RDF>
  </metadata>
  <sodipodi:namedview
     pagecolor="#ffffff"
     bordercolor="#666666"
     borderopacity="1"
     objecttolerance="10"
     gridtolerance="10"
     guidetolerance="10"
     inkscape:pageopacity="0"
     inkscape:pageshadow="2"
     inkscape:window-width="1920"
     inkscape:window-height="1137"
     id="namedview19"
     showgrid="false"
     fit-margin-top="0"
     fit-margin-left="0"
     fit-margin-right="0"
     fit-margin-bottom="0"
     inkscape:zoom="0.18895116"
     inkscape:cx="-1856.3602"
     inkscape:cy="654.15486"
     inkscape:window-x="-8"
     inkscape:window-y="-8"
     inkscape:window-maximized="1"
     inkscape:current-layer="svg2" />
  <path
     style="fill:#54bdea"
     inkscape:connector-curvature="0"
     id="path9"
     d="m 385.16248,541.31513 c 37.1564,50.1075 52.8011,85.6003 140.85,115.7379 27.9299,9.56 55.7561,-22.4409 88.002,-16.7025 13.9669,2.4855 17.3061,16.5448 29.3339,22.9659 21.6916,11.579 63.6412,12.8432 88.002,6.2634 162.3147,-43.844 162.9943,-98.7326 174.0483,-108.5662 14.1547,-12.5937 24.5536,-35.0293 41.0675,-43.844 12.9453,-6.9107 27.3883,-8.0058 41.0676,-10.4391 37.53482,-6.6789 114.47892,-42.25 121.24722,-85.6003 1.5635,-10.0204 5.1139,-27.4652 1.9557,-37.5806 -13.3891,-42.8805 -55.8461,-78.8347 -93.8689,-85.6003 -6.4339,-1.1452 -64.13182,0.4301 -66.49032,-2.0878 -13.8779,-28.48717 -51.5828,-76.5987 -68.4459,-85.60031 -31.6729,-16.90709 -64.7607,-20.91882 -99.7355,-27.14154 -56.8817,-2.81439 -87.4436,1.29235 -103.6468,4.17561 -37.1565,7.65496 -40.7049,10.02672 -43.0231,10.43906 -8.5392,1.51888 -80.0172,-33.86221 -117.3361,-29.22936 -84.0907,10.43905 -169.8164,113.36609 -172.0926,112.74183 -48.937,-13.43506 -72.4042,1.17962 -88.0489,9.53087 -26.0026,13.88084 -74.6756,37.89174 -78.177,88.59634 -7.8694,113.9214 165.8738,131.5321 183.8262,131.5321 z" />
  <path
     style="fill:#58afd8;fill-opacity:0.83800001"
     inkscape:connector-curvature="0"
     id="path11"
     d="m 670.85248,475.70353 c 266.2579,31.7275 258.9227,-139.6172 259.1319,-143.1696 1.7225,-29.2294 -8.2567,-82.84333 -23.1098,-91.84493 -27.8967,-16.90606 -57.0403,-20.91779 -87.8472,-27.14156 -50.1013,-2.81333 -77.0205,1.29236 -91.2922,4.17562 -32.7274,7.65601 -35.8528,10.02672 -37.8949,10.43906 -7.5204,1.51993 -70.4783,-33.86222 -103.3496,-29.22937 -74.0673,10.43906 -97.1823,114.96018 -99.1872,114.33588 0,0 -1.7225,140.3584 183.549,162.4349 z" />
  <path
     style="fill:#94e0ff;fill-opacity:0.95400002"
     inkscape:connector-curvature="0"
     id="path13"
     d="m 388.02598,522.15003 c 38.4462,50.1075 54.634,85.6003 145.7383,115.7368 28.9004,9.5601 57.6916,-22.4398 91.0567,-16.7025 14.4528,2.4856 17.9069,16.5459 30.3524,22.966 22.4455,11.58 65.8512,12.8442 91.0567,6.2634 167.9491,-43.844 169.1298,-98.1699 180.0901,-108.5662 13.7687,-13.0593 21.5045,-33.548 25.9097,-52.7277 14.1158,-61.4547 -125.1079,-179.9266 -278.8928,-175.751 -345.9022,9.3921 -285.3111,208.7812 -285.3111,208.7812 z" />
  <defs
     id="defs17" />
  <path
     style="fill:#54bdea"
     inkscape:connector-curvature="0"
     id="path9-3"
     d="m 246.38578,357.59753 c 44.538,48.0089 63.2909,82.0152 168.832,110.8906 33.4785,9.1597 66.8328,-21.501 105.4848,-16.003 16.7416,2.3815 20.7442,15.852 35.1616,22.0041 26.0008,11.0941 76.2843,12.3053 105.4848,6.0012 194.5609,-42.0079 195.3755,-94.5976 208.6255,-104.0194 16.9667,-12.0662 29.4315,-33.5622 49.2263,-42.0078 15.5168,-6.6212 32.8292,-7.6704 49.2262,-10.0019 44.99172,-6.3992 137.22172,-40.4805 145.33472,-82.01523 1.8741,-9.60078 6.1298,-26.31489 2.3441,-36.0067 -16.0489,-41.08464 -66.9407,-75.53303 -112.5172,-82.01524 -7.71212,-1.0972 -76.87262,0.41208 -79.69962,-2.00037 -16.635,-27.294079 -61.8305,-73.390649 -82.0437,-82.015259 -37.9652,-16.19901 -77.6263,-20.04272 -119.5495,-26.00483 -68.1819,-2.69651 -104.8156,1.23823 -124.2377,4.00074 -44.538,7.33436 -48.7914,9.60679 -51.5703,10.00186 -10.2356,1.45527 -95.9139,-32.4440302 -140.6465,-28.00521014 C 305.04468,10.402951 202.28848,109.01929 199.55988,108.42118 140.90098,95.548791 112.77168,109.55139 94.018884,117.55288 62.850384,130.85236 4.5079839,153.85762 0.31078393,202.43866 -9.1219161,311.58893 199.13798,328.46213 220.65688,328.46213 Z" />
  <path
     style="fill:#58afd8;fill-opacity:0.83800001"
     inkscape:connector-curvature="0"
     id="path11-4"
     d="m 517.27078,294.73383 c 362.3451,30.3987 352.3627,-133.76988 352.6475,-137.17352 2.3441,-28.0052 -11.2365,-79.373749 -31.4497,-87.998349 -37.964,-16.19802 -77.6251,-20.04173 -119.5495,-26.00484 -68.1819,-2.6955 -104.8156,1.23823 -124.2377,4.00074 -44.538,7.33537 -48.7914,9.60679 -51.5703,10.00186 -10.2344,1.45627 -95.9127,-32.44403 -140.6464,-28.00521 -100.7966,10.00186 -132.2534,110.145479 -134.9819,109.547369 0,0 -2.3441,134.48001 249.788,155.63195 z" />
  <path
     style="fill:#94e0ff;fill-opacity:0.95400002"
     inkscape:connector-curvature="0"
     id="path13-3"
     d="m 246.78898,339.23513 c 44.538,48.0089 63.2909,82.0152 168.8308,110.8896 33.4797,9.1597 66.8328,-21.5 105.4848,-16.003 16.7428,2.3815 20.7442,15.853 35.1616,22.0041 26.002,11.0951 76.2855,12.3063 105.4848,6.0011 194.5609,-42.0078 195.9287,-94.0585 208.6256,-104.0193 15.9504,-12.5123 24.912,-32.143 30.0151,-50.5194 16.3525,-58.88096 -144.9315,-172.39107 -323.0836,-168.39033 -400.711,8.99867 -330.5191,200.03723 -330.5191,200.03723 z" />
  <path
     style="fill:#c4a800"
     inkscape:connector-curvature="0"
     id="path5"
     d="m 494.82618,139.99701 c 0,0 -128.117,189.75702 -126.484,192.62502 1.632,2.867 83.632,-31.133 83.632,-31.133 l -58,126 76,-34 -104.507,289.523 250.047,-319.601 -51.54,24.078 82.336,-113.85204 -101.093,21.86004 c 0,0 86.461,-153.25802 89.609,-154.63302" />
  <path
     style="fill:#ffe12b"
     inkscape:connector-curvature="0"
     id="path7"
     d="m 508.82618,149.56301 c 0,0 -123.633,173.13302 -122,176.00002 1.633,2.867 80,-32.00004 80,-32.00004 l -54,126.00004 78,-40 -125.359,303.016 250.047,-319.602 -70.688,48.586 101.484,-138.35904 -111.484,38.35904 c 0,0 96.852,-169.75802 100,-171.13302" />
  <path
     style="fill:#ffffff;fill-opacity:0.48900003"
     inkscape:connector-curvature="0"
     id="path15"
     d="m 487.47418,409.13303 c -48.577,117.405 -53.669,133.59 -65.125,156.5 -3.15,6.301 -17.798,24.27 -12,32 85.725,-162.14 94.713,-187.724 94,-192 z" />
</svg>
