<svg xmlns="http://www.w3.org/2000/svg" width="512" height="512"><g transform="translate(-32 -32) scale(1.125)"><ellipse ry="150.338" rx="156.474" cy="255.812" cx="250.819" fill="#000000" /><path d="M256 56A200 200 0 0 0 56 256a200 200 0 0 0 200 200 200 200 0 0 0 200-200A200 200 0 0 0 256 56zm-86.523 131.27a23.767 23.38 0 0 1 23.767 23.38 23.767 23.38 0 0 1-23.767 23.382 23.767 23.38 0 0 1-23.768-23.381 23.767 23.38 0 0 1 23.768-23.381zm86.523 0a23.767 23.38 0 0 1 23.767 23.38A23.767 23.38 0 0 1 256 234.033a23.767 23.38 0 0 1-23.767-23.381A23.767 23.38 0 0 1 256 187.27zm86.523 0a23.767 23.38 0 0 1 23.768 23.38 23.767 23.38 0 0 1-23.768 23.382 23.767 23.38 0 0 1-23.767-23.381 23.767 23.38 0 0 1 23.767-23.381zm-173.046 90.699a23.767 23.38 0 0 1 23.767 23.381 23.767 23.38 0 0 1-23.767 23.381 23.767 23.38 0 0 1-23.768-23.381 23.767 23.38 0 0 1 23.768-23.381zm86.523 0a23.767 23.38 0 0 1 23.767 23.381A23.767 23.38 0 0 1 256 324.73a23.767 23.38 0 0 1-23.767-23.38A23.767 23.38 0 0 1 256 277.967zm86.523 0a23.767 23.38 0 0 1 23.768 23.381 23.767 23.38 0 0 1-23.768 23.381 23.767 23.38 0 0 1-23.767-23.381 23.767 23.38 0 0 1 23.767-23.381z" fill="#f5f5f5"/></g></svg>
