<?xml version="1.0"?><svg width="136.301" height="133.554" xmlns="http://www.w3.org/2000/svg">
 <title>Red-Arrow-Up</title>
 <defs>
  <linearGradient id="svg_1">
   <stop offset="0" stop-color="#000000"/>
   <stop offset="1" stop-color="#ffffff"/>
  </linearGradient>
  <linearGradient y2="0" x2="1" y1="0" x1="0" id="svg_2">
   <stop offset="0" stop-color="#000000"/>
   <stop offset="0.589844" stop-color="#ffffff"/>
  </linearGradient>
  <linearGradient y2="0" x2="1" y1="0" x1="0" id="svg_3">
   <stop offset="0" stop-color="#000000"/>
   <stop offset="1" stop-color="#ffffff"/>
  </linearGradient>
  <linearGradient y2="0" x2="1" y1="0" x1="0" id="svg_4">
   <stop offset="0" stop-color="#000000"/>
   <stop offset="1" stop-color="#ffffff"/>
  </linearGradient>
  <linearGradient y2="0" x2="1" y1="0" x1="0" id="svg_5">
   <stop offset="0" stop-color="#000000"/>
   <stop offset="1" stop-color="#ffffff"/>
  </linearGradient>
 </defs>
 <g>
  <title>Layer 1</title>
  <g transform="rotate(180 68.8675 68.6605)" id="g3">
   <radialGradient stroke="url(#svg_5)" fill="#ffff00" r="107.2917" id="XMLID_2_" gradientUnits="userSpaceOnUse" cy="16.0752" cx="46.064">
    <stop stroke="url(#svg_5)" fill="#ffff00" stop-color="#D1F593" offset="0" id="stop6"/>
    <stop stroke="url(#svg_5)" fill="#ffff00" stop-color="#81CE09" offset="1" id="stop8"/>
   </radialGradient>
   <path stroke="url(#svg_5)" fill="#ffff00" id="path10" d="m7.729,57.055c8.684,0 17.370001,0 26.055,0c0.875999,0 0.414001,-21.410999 0.414001,-23.408001c0.001999,-7.317999 -2.595001,-21.401999 2.614998,-27.581999c5.442001,-6.456 19.133999,-3.953 26.521,-3.953c9.347,0 18.695999,0 28.044998,0c12.553001,0 11.354004,12.944 11.354004,21.597c0,10.591999 0,21.185001 0,31.776001c0,2.725998 2.367996,1.57 4.850998,1.57c5.667,0 11.331001,0 16.996002,0c9.421005,0 13.819,9.717003 6.959,16.598999c-5.921005,5.941002 -11.844002,11.883003 -17.765999,17.823997c-12.607002,12.647003 -24.645004,27.021004 -38.354004,38.475998c-8.104996,8.083008 -15.822998,-0.108002 -21.532997,-5.812996c-7.777,-7.770996 -15.557003,-15.542999 -23.334002,-23.315002c-7.645,-7.635994 -15.288,-15.273994 -22.932,-22.909996c-4.956,-4.954002 -11.288,-11.227997 -4.972,-18.506001c1.291,-1.487 3.104,-2.355 5.081,-2.355"/>
   <path stroke="url(#svg_5)" fill="#ffff00" id="path12" d="m120.556999,75.788002c-5.006996,5.021996 -51.887001,52.282005 -52.117996,52.051994c-9.757004,-9.711998 -19.515003,-19.423996 -29.272003,-29.135994c-5.813,-5.785004 -11.626999,-11.57 -17.438999,-17.355003c-3.576,-3.560997 -10.476001,-8.663002 -7.905001,-14.488998c-4.219,0 -8.437,0 -12.656,0c0.692,5.392998 6.771,9.653999 10.355,13.223c7.439,7.406998 14.877999,14.815002 22.317,22.223c7.095001,7.067001 14.191998,14.133003 21.290001,21.197998c3.855999,3.843002 7.752998,9.035004 13.542995,9c5.558006,0.06601 9.166,-4.653999 12.851006,-8.349998c6.909996,-6.931999 13.819,-13.862 20.728996,-20.797012c7.476997,-7.5 14.954002,-15 22.432999,-22.502998c3.703003,-3.718002 10.343018,-8.382996 11.072006,-13.993996c-4.247009,0 -8.491005,0 -12.738007,0c1.269005,3.041008 -0.284996,6.734009 -2.461998,8.928009"/>
   <path stroke="url(#svg_5)" fill="#ffff00" id="path14" d="m127.290001,56.412998c-7.709999,0 -15.420998,0 -23.129997,0c-0.998001,0 -0.465004,-17.218998 -0.465004,-18.938c0,-8.209999 0,-16.420998 0,-24.633999c0,-10.889 -9.997002,-11.371 -18.014,-11.371c-10.150002,0 -20.302002,0 -30.452999,0c-7.753002,0 -18.296001,-1.128 -20.153,9.112c-1.291,7.109 -0.177002,15.245 -0.177002,22.420999c0.000999,7.804001 0.003002,15.606003 0.003002,23.41c-8.386002,0 -16.771002,0 -25.156001,0c-3.101,0 -5.961,1.312 -7.487,4.099003c-0.658,1.202999 -2.497,6.348 -0.286,6.348c2.559,0 5.115,0 7.672,0c3.825,0 3.104,-0.059998 5.845,-2.069c3.166,-2.32 9.243999,-1.369999 12.927999,-1.369999c5.045002,0 10.091999,0 15.136002,0c0.263,0 0.127998,-23.169003 0.127998,-24.950001c0,-6.814001 -2.498001,-21.409 2.522999,-27.108001c4.928001,-5.592 21.765003,-2.503 28.174,-2.503c9.076004,0 20.759003,-1.973 20.759003,10.899001c0,9.684 0,19.371 0,29.057001c0,4.844997 0,9.691998 0,14.537998c0,0.134998 15.931999,0.065998 17.339996,0.065998c2.448006,0 5.306999,-0.302998 7.611,0.638c3.817001,1.563004 2.562004,2.801003 7.135002,2.801003c1.336006,0 7.586998,0.912003 8.532997,0c0.705002,-5.462002 -2.692993,-10.446003 -8.465996,-10.446003"/>
   <path stroke="url(#svg_5)" fill="#ffff00" id="path16" d="m46.273998,0.573c-13.806999,0 -12.010998,15.303 -12.010998,24.606001c0,10.048 -0.001999,20.092999 -0.001999,30.141998c0,0.621002 -22.961001,-0.127998 -25.570002,0.194c-8.07,0 -11.073,12.073997 -5.88,17.262001c1.504,1.502998 3.007,3.005997 4.512,4.509003c15.4,15.386993 30.801001,30.772995 46.202002,46.159996c5.826,5.820007 12.768997,14.134995 21.830002,7.886993c5.109993,-3.526993 9.365997,-9.11599 13.709999,-13.472992c14.189995,-14.237 28.381996,-28.473999 42.572998,-42.711998c6.207993,-6.228004 7.585999,-19.633003 -4.488998,-19.633003c-4.819,0 -9.638,0 -14.457001,0c-2.513,0 -8.099998,1.479 -8.099998,-1.556999c0,-10.056999 0,-20.116001 0,-30.174999c0,-9.102001 1.273994,-23.210001 -12.010002,-23.210001c-15.209,-1.289 -31.033001,0 -46.308002,0m15.026001,128.102003c-12.836998,-12.824005 -25.672001,-25.649002 -38.508999,-38.474007c-5.947001,-5.940994 -11.894,-11.882996 -17.84,-17.823997c-3.13,-3.128998 -3.784,-7.863998 -1.521,-11.806c2.448,-4.264988 7.772,-3.259998 11.924999,-3.259998c5.475,0 10.950001,0 16.427,0c3.185999,0 4.275,1.009998 4.275,-2.173c0,-10.753002 0.000999,-21.507 0.000999,-32.259991c0,-8.321 -1.292,-20.509 10.757,-20.509c9.728001,0 19.454998,0 29.183002,0c7.125,0 20.340996,-2.447 25.045998,4.505c4.363998,6.454 1.751999,20.129 1.751999,27.325998c0,1.606003 -0.123001,23.112003 0.114006,23.112003c8.343994,0 18.075996,-1.517002 26.265991,0.185997c12.227005,2.544003 3.05101,14.514999 -1.561996,19.140999c-7.611,7.638 -15.223,15.274002 -22.836998,22.912003c-7.517998,7.542 -15.036003,15.084999 -22.554001,22.627998c-5.426003,5.445992 -12.953003,14.442986 -20.923,6.495995"/>
  </g>
 </g>
</svg>