<?xml version="1.0" encoding="UTF-8" standalone="no"?>
<!-- Written by Treer (gitlab.com/Treer) -->

<svg
   xmlns:dc="http://purl.org/dc/elements/1.1/"
   xmlns:cc="http://creativecommons.org/ns#"
   xmlns:rdf="http://www.w3.org/1999/02/22-rdf-syntax-ns#"
   xmlns:svg="http://www.w3.org/2000/svg"
   xmlns="http://www.w3.org/2000/svg"
   xmlns:sodipodi="http://sodipodi.sourceforge.net/DTD/sodipodi-0.dtd"
   xmlns:inkscape="http://www.inkscape.org/namespaces/inkscape"
   version="1.1"
   width="600"
   height="600"
   stroke="black"
   stroke-width="30"
   fill="none"
   id="svg2"
   inkscape:version="0.91 r13725"
   sodipodi:docname="user_menu.svg">
  <metadata
     id="metadata16">
    <rdf:RDF>
      <cc:Work
         rdf:about="">
        <dc:format>image/svg+xml</dc:format>
        <dc:type
           rdf:resource="http://purl.org/dc/dcmitype/StillImage" />
      </cc:Work>
    </rdf:RDF>
  </metadata>
  <defs
     id="defs14" />
  <sodipodi:namedview
     pagecolor="#ffffff"
     bordercolor="#666666"
     borderopacity="1"
     objecttolerance="10"
     gridtolerance="10"
     guidetolerance="10"
     inkscape:pageopacity="0"
     inkscape:pageshadow="2"
     inkscape:window-width="1920"
     inkscape:window-height="1137"
     id="namedview12"
     showgrid="false"
     inkscape:zoom="0.39333333"
     inkscape:cx="300"
     inkscape:cy="300"
     inkscape:window-x="-8"
     inkscape:window-y="-8"
     inkscape:window-maximized="1"
     inkscape:current-layer="svg2" />
  <title
     id="title4">Abstract user icon</title>
  <circle
     cx="300"
     cy="300"
     r="265"
     id="circle6" />
  <circle
     cx="300"
     cy="230"
     r="115"
     id="circle8" />
  <path
     d="M106.81863443903,481.4 a205,205 1 0,1 386.36273112194,0"
     stroke-linecap="butt"
     id="path10" />
  <path
     style="fill:#5b00ff;fill-opacity:1;stroke:#ffffff;stroke-width:2.54237294;stroke-miterlimit:4;stroke-dasharray:none;stroke-opacity:1"
     d="M 266.44068,576.81971 C 169.46964,565.72487 80.252364,497.81631 42.559672,406.41058 26.627329,367.77427 23.778162,351.6317 23.778162,300 c 0,-40.46368 0.77682,-49.88375 5.560993,-67.43498 C 61.107597,116.01922 154.49696,35.500928 272.66044,22.77868 377.78311,11.460489 487.03215,67.236925 540.60392,159.57559 566.12326,203.56185 577.75678,247.5324 577.75678,300 c 0,51.97647 -10.56526,92.53009 -36.08326,138.50174 -41.23437,74.28523 -124.68593,128.64701 -212.52364,138.44151 -27.23092,3.03643 -35.22834,3.02067 -62.7092,-0.12356 z m 62.54718,-27.69084 c 51.24495,-6.42556 98.18204,-26.77406 132.71595,-57.53588 l 15.66288,-13.95206 -7.30594,-14.47294 c -21.63448,-42.85767 -59.97649,-76.46687 -105.8037,-92.74365 -51.33961,-18.23469 -104.89282,-14.21479 -154.95018,11.6311 -28.1808,14.55046 -62.33683,48.519 -76.36117,75.942 -11.73094,22.93853 -12.4781,21.08937 17.53327,43.39421 52.0444,38.68012 115.47026,55.64159 178.50889,47.73722 z M 134.6949,407.50238 c 23.42096,-27.36435 66.03357,-56.63578 91.89979,-63.1278 8.53373,-2.14183 8.58329,-4.42277 0.19363,-8.91277 -9.86717,-5.28077 -33.38272,-31.71827 -40.21646,-45.21364 -14.36192,-28.3621 -18.43929,-66.41448 -10.14293,-94.65961 9.63724,-32.81018 34.10077,-63.26643 63.60925,-79.19133 76.40797,-41.23525 173.04397,7.48023 186.94956,94.24373 7.09441,44.26544 -13.31327,95.65304 -47.83147,120.44214 -6.06137,4.35295 -11.02068,8.5844 -11.02068,9.4032 0,0.81882 6.85528,4.14694 15.23395,7.39584 41.51238,16.09678 84.57249,54.26768 106.54493,94.44739 l 7.35162,13.44354 8.22913,-11.14925 c 13.10759,-17.75883 32.28381,-60.04365 38.50032,-84.89565 4.61649,-18.45552 5.71917,-29.9714 5.71917,-59.72817 0,-44.42813 -5.40648,-69.72382 -22.70883,-106.24948 -15.07065,-31.81443 -29.17983,-51.0322 -56.47083,-76.91753 C 408.24346,57.749819 321.9676,35.637439 237.41759,57.085309 144.40419,80.680093 74.777514,153.96073 53.757117,250.38415 c -4.744866,21.76535 -5.343046,73.1315 -1.095915,94.10738 6.995039,34.54739 20.764251,68.39079 38.834189,95.45072 l 10.325889,15.46314 9.67409,-16.05015 c 5.32075,-8.82758 15.76054,-23.16138 23.19953,-31.85286 z m 208.33941,-86.51476 c 27.93979,-13.7687 46.64075,-36.32372 54.20637,-65.3777 5.2939,-20.33002 4.96874,-35.66065 -1.17854,-55.56323 -8.56096,-27.71714 -27.73236,-49.37129 -55.03457,-62.16176 -13.25044,-6.20752 -17.70234,-6.94721 -41.53604,-6.90126 -23.32066,0.045 -28.46239,0.88035 -40.67797,6.60904 -40.95137,19.2048 -64.68399,62.54544 -58.43958,106.72265 4.56259,32.27889 26.20988,62.26761 55.01255,76.21074 17.26511,8.3579 25.2099,9.81758 49.51219,9.09682 18.67981,-0.55401 24.3357,-1.83471 38.13559,-8.6353 z"
     id="path4144"
     inkscape:connector-curvature="0" />
</svg>
