<?xml version="1.0" encoding="UTF-8" standalone="no"?>
<!-- Created with Inkscape (http://www.inkscape.org/) -->

<svg
     xmlns:dc="http://purl.org/dc/elements/1.1/"
     xmlns:cc="http://creativecommons.org/ns#"
     xmlns:rdf="http://www.w3.org/1999/02/22-rdf-syntax-ns#"
     xmlns:svg="http://www.w3.org/2000/svg"
     xmlns="http://www.w3.org/2000/svg"
     xmlns:xlink="http://www.w3.org/1999/xlink"
     xmlns:sodipodi="http://sodipodi.sourceforge.net/DTD/sodipodi-0.dtd"
     xmlns:inkscape="http://www.inkscape.org/namespaces/inkscape"
     width="525.18079"
     height="107.6072"
     id="svg3562"
     version="1.1"
     inkscape:version="0.48.5 r10040"
     sodipodi:docname="New document 2">
    <defs
         id="defs3564">
        <linearGradient
             inkscape:collect="always"
             xlink:href="#SVGID_4_"
             id="linearGradient3420"
             gradientUnits="userSpaceOnUse"
             gradientTransform="matrix(1.044387e-4,-1,1,-0.001,16036.167,-85.0571)"
             x1="-63.682098"
             y1="-15912.361"
             x2="-54.107101"
             y2="-15912.361" />
        <linearGradient
             id="SVGID_4_"
             gradientUnits="userSpaceOnUse"
             x1="-63.682098"
             y1="-15912.361"
             x2="-54.107101"
             y2="-15912.361"
             gradientTransform="matrix(1.044387e-4,-1,1,-0.001,16036.167,-85.0571)">
            <stop
                 offset="0"
                 style="stop-color:#000000"
                 id="stop48" />
            <stop
                 offset="1"
                 style="stop-color:#000000;stop-opacity:0"
                 id="stop50" />
        </linearGradient>
        <linearGradient
             gradientTransform="matrix(1.8356545,0,0,1.8356545,78.311259,199.1713)"
             inkscape:collect="always"
             xlink:href="#SVGID_7_"
             id="linearGradient3253"
             gradientUnits="userSpaceOnUse"
             x1="91.774902"
             y1="175.47459"
             x2="95.624901"
             y2="175.47459" />
        <linearGradient
             y2="175.47459"
             x2="95.624901"
             y1="175.47459"
             x1="91.774902"
             gradientUnits="userSpaceOnUse"
             id="SVGID_7_">
            <stop
                 id="stop89"
                 style="stop-color:#000000;stop-opacity:0.5137"
                 offset="0" />
            <stop
                 id="stop91"
                 style="stop-color:#000000;stop-opacity:0"
                 offset="0.4784" />
        </linearGradient>
        <linearGradient
             inkscape:collect="always"
             xlink:href="#SVGID_8_"
             id="linearGradient3250"
             gradientUnits="userSpaceOnUse"
             gradientTransform="matrix(-1.8356545,0,0,-1.8356545,78.311259,199.1713)"
             x1="-95.700203"
             y1="-175.47459"
             x2="-93.600197"
             y2="-175.47459" />
        <linearGradient
             gradientTransform="scale(-1,-1)"
             y2="-175.47459"
             x2="-93.600197"
             y1="-175.47459"
             x1="-95.700203"
             gradientUnits="userSpaceOnUse"
             id="SVGID_8_">
            <stop
                 id="stop96"
                 style="stop-color:#000000;stop-opacity:0.5137"
                 offset="0.1412" />
            <stop
                 id="stop98"
                 style="stop-color:#000000;stop-opacity:0"
                 offset="0.7373" />
        </linearGradient>
        <linearGradient
             id="SVGID_3_"
             gradientUnits="userSpaceOnUse"
             x1="1.2627"
             y1="-7.1499"
             x2="2.9377"
             y2="-7.1499">
            <stop
                 offset="0"
                 style="stop-color:#000000"
                 id="stop37" />
            <stop
                 offset="0.8941"
                 style="stop-color:#000000;stop-opacity:0.2392"
                 id="stop39" />
            <stop
                 offset="1"
                 style="stop-color:#000000;stop-opacity:0"
                 id="stop41" />
        </linearGradient>
        <linearGradient
             id="SVGID_2_"
             gradientUnits="userSpaceOnUse"
             x1="-67.274399"
             y1="-16032.752"
             x2="-64.1744"
             y2="-16032.752"
             gradientTransform="matrix(3.225807e-4,-1,1,-0.001,16034.429,-85.0576)">
            <stop
                 offset="0"
                 style="stop-color:#000000"
                 id="stop26" />
            <stop
                 offset="0.8941"
                 style="stop-color:#000000;stop-opacity:0.2392"
                 id="stop28" />
            <stop
                 offset="1"
                 style="stop-color:#000000;stop-opacity:0"
                 id="stop30" />
        </linearGradient>
        <linearGradient
             gradientTransform="matrix(1.8356545,0,0,1.8356545,78.311259,199.1713)"
             inkscape:collect="always"
             xlink:href="#SVGID_9_"
             id="linearGradient3236"
             gradientUnits="userSpaceOnUse"
             x1="338.8252"
             y1="175.47459"
             x2="334.97559"
             y2="175.47459" />
        <linearGradient
             y2="175.47459"
             x2="334.97559"
             y1="175.47459"
             x1="338.8252"
             gradientUnits="userSpaceOnUse"
             id="SVGID_9_">
            <stop
                 id="stop125"
                 style="stop-color:#000000;stop-opacity:0.5137"
                 offset="0" />
            <stop
                 id="stop127"
                 style="stop-color:#000000;stop-opacity:0"
                 offset="0.4784" />
        </linearGradient>
        <linearGradient
             gradientTransform="matrix(1.8356545,0,0,1.8356545,78.311259,199.1713)"
             inkscape:collect="always"
             xlink:href="#SVGID_10_"
             id="linearGradient3233"
             gradientUnits="userSpaceOnUse"
             x1="334.9502"
             y1="175.47459"
             x2="337.0502"
             y2="175.47459" />
        <linearGradient
             y2="175.47459"
             x2="337.0502"
             y1="175.47459"
             x1="334.9502"
             gradientUnits="userSpaceOnUse"
             id="SVGID_10_">
            <stop
                 id="stop132"
                 style="stop-color:#000000;stop-opacity:0.5137"
                 offset="0.1412" />
            <stop
                 id="stop134"
                 style="stop-color:#000000;stop-opacity:0"
                 offset="0.7373" />
        </linearGradient>
        <linearGradient
             id="SVGID_6_"
             gradientUnits="userSpaceOnUse"
             x1="2.0376"
             y1="-7.7002001"
             x2="0.3626"
             y2="-7.7002001">
            <stop
                 offset="0"
                 style="stop-color:#000000"
                 id="stop68" />
            <stop
                 offset="0.8941"
                 style="stop-color:#000000;stop-opacity:0.2392"
                 id="stop70" />
            <stop
                 offset="1"
                 style="stop-color:#000000;stop-opacity:0"
                 id="stop72" />
        </linearGradient>
        <linearGradient
             id="SVGID_5_"
             gradientUnits="userSpaceOnUse"
             x1="1.6499"
             y1="-4.8501"
             x2="1.6499"
             y2="-1.7501">
            <stop
                 offset="0"
                 style="stop-color:#000000"
                 id="stop57" />
            <stop
                 offset="0.8941"
                 style="stop-color:#000000;stop-opacity:0.2392"
                 id="stop59" />
            <stop
                 offset="1"
                 style="stop-color:#000000;stop-opacity:0"
                 id="stop61" />
        </linearGradient>
        <linearGradient
             gradientTransform="matrix(0.9971,0.0767,-0.0767,0.9971,1.142174e-4,-3.689528e-4)"
             y2="130.91161"
             x2="361.3866"
             y1="130.91161"
             x1="126.1431"
             gradientUnits="userSpaceOnUse"
             id="SVGID_11_">
            <stop
                 id="stop157"
                 style="stop-color:#E9D382"
                 offset="0" />
            <stop
                 id="stop159"
                 style="stop-color:#CDB96F"
                 offset="1" />
        </linearGradient>
        <linearGradient
             y2="151.5"
             x2="354"
             y1="151.5"
             x1="69.399902"
             gradientUnits="userSpaceOnUse"
             id="SVGID_12_">
            <stop
                 id="stop188"
                 style="stop-color:#E9D382"
                 offset="0" />
            <stop
                 id="stop190"
                 style="stop-color:#FEF3CA"
                 offset="0.4235" />
            <stop
                 id="stop192"
                 style="stop-color:#CDB96F"
                 offset="1" />
        </linearGradient>
        <radialGradient
             id="SVGID_1_"
             cx="142.8501"
             cy="-3.4502001"
             r="124.65"
             gradientTransform="matrix(1,0,0,-0.1558,0,-3.9873)"
             gradientUnits="userSpaceOnUse">
            <stop
                 offset="0.2118"
                 style="stop-color:#000000;stop-opacity:0"
                 id="stop15" />
            <stop
                 offset="0.8118"
                 style="stop-color:#000000;stop-opacity:0.651"
                 id="stop17" />
            <stop
                 offset="1"
                 style="stop-color:#000000;stop-opacity:0.9333"
                 id="stop19" />
        </radialGradient>
        <linearGradient
             inkscape:collect="always"
             xlink:href="#SVGID_11_"
             id="linearGradient3813"
             gradientUnits="userSpaceOnUse"
             gradientTransform="matrix(1.8303311,0.14079471,-0.14079471,1.8303311,78.31148,159.17062)"
             x1="126.1431"
             y1="130.91161"
             x2="361.3866"
             y2="130.91161" />
        <radialGradient
             inkscape:collect="always"
             xlink:href="#SVGID_1_"
             id="radialGradient3815"
             gradientUnits="userSpaceOnUse"
             gradientTransform="matrix(1.8356545,0,0,0.28599498,205.70551,443.23981)"
             cx="142.8501"
             cy="-3.4502001"
             r="124.65" />
    </defs>
    <sodipodi:namedview
         id="base"
         pagecolor="#ffffff"
         bordercolor="#666666"
         borderopacity="1.0"
         inkscape:pageopacity="0.0"
         inkscape:pageshadow="2"
         inkscape:zoom="2"
         inkscape:cx="201.02857"
         inkscape:cy="-54.339583"
         inkscape:document-units="px"
         inkscape:current-layer="layer1"
         showgrid="false"
         fit-margin-top="0"
         fit-margin-left="0"
         fit-margin-right="0"
         fit-margin-bottom="0" />
    <metadata
         id="metadata3567">
        <rdf:RDF>
            <cc:Work
                 rdf:about="">
                <dc:format>image/svg+xml</dc:format>
                <dc:type
                     rdf:resource="http://purl.org/dc/dcmitype/StillImage" />
                <dc:title></dc:title>
            </cc:Work>
        </rdf:RDF>
    </metadata>
    <g
         inkscape:label="Layer 1"
         inkscape:groupmode="layer"
         id="layer1"
         transform="translate(-204.97143,-454.4154)">
        <g
             id="g3817">
            <polygon
                 transform="matrix(1.8356545,0,0,-1.8356545,244.98833,477.25143)"
                 style="opacity:0.16019999;fill:url(#linearGradient3420);fill-rule:evenodd"
                 points="247.6,-17.55 0,-17.55 0,0 247.6,0 "
                 id="polygon3365" />
            <g
                 id="g3787">
                <path
                     id="path3353"
                     d="M 252.23972,553.02789 C 252.23972,552.53777 252.05615,552.07886 251.68902,551.65115 251.26132,551.28402 250.77119,551.10046 250.22049,551.10046 249.73038,551.10046 249.27146,551.28402 248.84375,551.65115 248.47663,552.07886 248.29306,552.53777 248.29306,553.02789 V 557.52525 C 248.29306,558.01537 248.47663,558.47428 248.84375,558.90199 249.27146,559.26911 249.73038,559.45268 250.22049,559.45268 250.77119,559.45268 251.26132,559.26911 251.68902,558.90199 252.05615,558.47428 252.23972,558.01537 252.23972,557.52525 V 553.02789 z M 251.68902,540.36187 C 251.26132,539.99474 250.77119,539.81118 250.22049,539.81118 249.73038,539.81118 249.27146,539.99474 248.84375,540.36187 248.47663,540.78959 248.29306,541.24849 248.29306,541.73862 V 546.23598 C 248.29306,546.72609 248.47663,547.185 248.84375,547.61271 249.27146,547.97984 249.73038,548.16341 250.22049,548.16341 250.77119,548.16341 251.26132,547.97984 251.68902,547.61271 252.05615,547.185 252.23972,546.72609 252.23972,546.23598 V 541.73862 C 252.23972,541.24849 252.05615,540.78959 251.68902,540.36187 z M 251.68902,529.34795 C 251.26132,528.92024 250.77119,528.70547 250.22049,528.70547 249.73038,528.70547 249.27146,528.92024 248.84375,529.34795 248.47663,529.71508 248.29306,530.17399 248.29306,530.72469 V 535.13026 C 248.29306,535.68096 248.47663,536.13987 248.84375,536.507 249.27146,536.87413 249.73038,537.0577 250.22049,537.0577 250.77119,537.0577 251.26132,536.87413 251.68902,536.507 252.05615,536.13987 252.23972,535.68096 252.23972,535.13026 V 530.72469 C 252.23972,530.17399 252.05615,529.71508 251.68902,529.34795 z M 252.23972,519.61898 C 252.23972,519.06829 252.05615,518.60937 251.68902,518.24223 251.26132,517.87511 250.77119,517.69154 250.22049,517.69154 249.73038,517.69154 249.27146,517.87511 248.84375,518.24223 248.47663,518.60937 248.29306,519.06829 248.29306,519.61898 V 524.02455 C 248.29306,524.57524 248.47663,525.03416 248.84375,525.40129 249.27146,525.76842 249.73038,525.95198 250.22049,525.95198 250.77119,525.95198 251.26132,525.76842 251.68902,525.40129 252.05615,525.03416 252.23972,524.57524 252.23972,524.02455 V 519.61898 z M 247.46702,482.44697 255.17677,482.63054 V 562.0226 L 247.46702,561.74725 245.53958,561.10477 247.09989,560.00338 H 247.46702 V 482.44697 z"
                     style="opacity:0.30080004;fill-rule:evenodd"
                     inkscape:connector-curvature="0" />
                <path
                     inkscape:connector-curvature="0"
                     id="path86"
                     d="M 251.50527,552.25946 C 251.50527,551.76934 251.32171,551.31043 250.95457,550.88271 250.58745,550.51742 250.12853,550.33202 249.57783,550.33202 249.08772,550.33202 248.6288,550.51742 248.20109,550.88271 247.83397,551.31043 247.6504,551.76934 247.6504,552.25946 V 556.75682 C 247.6504,557.24693 247.83397,557.70584 248.20109,558.13356 248.6288,558.50068 249.08772,558.68425 249.57783,558.68425 250.12853,558.68425 250.58745,558.50068 250.95457,558.13356 251.32171,557.70584 251.50527,557.24693 251.50527,556.75682 V 552.25946 z M 248.20109,539.59344 C 247.83397,539.96058 247.6504,540.41948 247.6504,540.97018 V 545.37392 C 247.6504,545.92645 247.83397,546.38537 248.20109,546.75066 248.6288,547.11778 249.08772,547.30319 249.57783,547.30319 250.12853,547.30319 250.58745,547.11778 250.95457,546.75066 251.32171,546.38537 251.50527,545.92645 251.50527,545.37392 V 540.97018 C 251.50527,540.41948 251.32171,539.96058 250.95457,539.59344 250.58745,539.22631 250.12853,539.04274 249.57783,539.04274 249.08772,539.04274 248.6288,539.22631 248.20109,539.59344 z M 251.50527,529.86448 C 251.50527,529.37436 251.32171,528.91544 250.95457,528.48774 250.58745,528.1206 250.12853,527.9352 249.57783,527.9352 249.08772,527.9352 248.6288,528.1206 248.20109,528.48774 247.83397,528.91544 247.6504,529.37436 247.6504,529.86448 V 534.35999 C 247.6504,534.85011 247.83397,535.30903 248.20109,535.73673 248.6288,536.10386 249.08772,536.28927 249.57783,536.28927 250.12853,536.28927 250.58745,536.10386 250.95457,535.73673 251.32171,535.30903 251.50527,534.85011 251.50527,534.35999 V 529.86448 z M 251.50527,518.85054 C 251.50527,518.29801 251.32171,517.8391 250.95457,517.4738 250.58745,517.0461 250.12853,516.82949 249.57783,516.82949 249.08772,516.82949 248.6288,517.04426 248.20109,517.4738 247.83397,517.8391 247.6504,518.29801 247.6504,518.85054 V 523.25428 C 247.6504,523.80498 247.83397,524.26389 248.20109,524.63102 248.6288,524.99816 249.08772,525.18172 249.57783,525.18172 250.12853,525.18172 250.58745,524.99816 250.95457,524.63102 251.32171,524.26389 251.50527,523.80498 251.50527,523.25428 V 518.85054 z M 246.73258,481.58676 H 253.89162 V 560.97881 H 246.73258 V 481.58676 z"
                     style="fill:#8f887b;fill-rule:evenodd" />
                <path
                     inkscape:connector-curvature="0"
                     id="path93"
                     d="M 251.50527,552.25946 C 251.50527,551.76934 251.32171,551.31043 250.95457,550.88271 250.58745,550.51742 250.12853,550.33202 249.57783,550.33202 249.08772,550.33202 248.6288,550.51742 248.20109,550.88271 247.83397,551.31043 247.6504,551.76934 247.6504,552.25946 V 556.75682 C 247.6504,557.24693 247.83397,557.70584 248.20109,558.13356 248.6288,558.50068 249.08772,558.68425 249.57783,558.68425 250.12853,558.68425 250.58745,558.50068 250.95457,558.13356 251.32171,557.70584 251.50527,557.24693 251.50527,556.75682 V 552.25946 z M 248.20109,539.59344 C 247.83397,539.96058 247.6504,540.41948 247.6504,540.97018 V 545.37392 C 247.6504,545.92645 247.83397,546.38537 248.20109,546.75066 248.6288,547.11778 249.08772,547.30319 249.57783,547.30319 250.12853,547.30319 250.58745,547.11778 250.95457,546.75066 251.32171,546.38537 251.50527,545.92645 251.50527,545.37392 V 540.97018 C 251.50527,540.41948 251.32171,539.96058 250.95457,539.59344 250.58745,539.22631 250.12853,539.04274 249.57783,539.04274 249.08772,539.04274 248.6288,539.22631 248.20109,539.59344 z M 251.50527,529.86448 C 251.50527,529.37436 251.32171,528.91544 250.95457,528.48774 250.58745,528.1206 250.12853,527.9352 249.57783,527.9352 249.08772,527.9352 248.6288,528.1206 248.20109,528.48774 247.83397,528.91544 247.6504,529.37436 247.6504,529.86448 V 534.35999 C 247.6504,534.85011 247.83397,535.30903 248.20109,535.73673 248.6288,536.10386 249.08772,536.28927 249.57783,536.28927 250.12853,536.28927 250.58745,536.10386 250.95457,535.73673 251.32171,535.30903 251.50527,534.85011 251.50527,534.35999 V 529.86448 z M 251.50527,518.85054 C 251.50527,518.29801 251.32171,517.8391 250.95457,517.4738 250.58745,517.0461 250.12853,516.82949 249.57783,516.82949 249.08772,516.82949 248.6288,517.04426 248.20109,517.4738 247.83397,517.8391 247.6504,518.29801 247.6504,518.85054 V 523.25428 C 247.6504,523.80498 247.83397,524.26389 248.20109,524.63102 248.6288,524.99816 249.08772,525.18172 249.57783,525.18172 250.12853,525.18172 250.58745,524.99816 250.95457,524.63102 251.32171,524.26389 251.50527,523.80498 251.50527,523.25428 V 518.85054 z M 246.73258,481.58676 H 253.89162 V 560.97881 H 246.73258 V 481.58676 z"
                     style="fill:url(#linearGradient3253);fill-rule:evenodd" />
                <path
                     inkscape:connector-curvature="0"
                     id="path100"
                     d="M 251.50527,552.25946 C 251.50527,551.76934 251.32171,551.31043 250.95457,550.88271 250.58745,550.51742 250.12853,550.33202 249.57783,550.33202 249.08772,550.33202 248.6288,550.51742 248.20109,550.88271 247.83397,551.31043 247.6504,551.76934 247.6504,552.25946 V 556.75682 C 247.6504,557.24693 247.83397,557.70584 248.20109,558.13356 248.6288,558.50068 249.08772,558.68425 249.57783,558.68425 250.12853,558.68425 250.58745,558.50068 250.95457,558.13356 251.32171,557.70584 251.50527,557.24693 251.50527,556.75682 V 552.25946 z M 248.20109,539.59344 C 247.83397,539.96058 247.6504,540.41948 247.6504,540.97018 V 545.37392 C 247.6504,545.92645 247.83397,546.38537 248.20109,546.75066 248.6288,547.11778 249.08772,547.30319 249.57783,547.30319 250.12853,547.30319 250.58745,547.11778 250.95457,546.75066 251.32171,546.38537 251.50527,545.92645 251.50527,545.37392 V 540.97018 C 251.50527,540.41948 251.32171,539.96058 250.95457,539.59344 250.58745,539.22631 250.12853,539.04274 249.57783,539.04274 249.08772,539.04274 248.6288,539.22631 248.20109,539.59344 z M 251.50527,529.86448 C 251.50527,529.37436 251.32171,528.91544 250.95457,528.48774 250.58745,528.1206 250.12853,527.9352 249.57783,527.9352 249.08772,527.9352 248.6288,528.1206 248.20109,528.48774 247.83397,528.91544 247.6504,529.37436 247.6504,529.86448 V 534.35999 C 247.6504,534.85011 247.83397,535.30903 248.20109,535.73673 248.6288,536.10386 249.08772,536.28927 249.57783,536.28927 250.12853,536.28927 250.58745,536.10386 250.95457,535.73673 251.32171,535.30903 251.50527,534.85011 251.50527,534.35999 V 529.86448 z M 251.50527,518.85054 C 251.50527,518.29801 251.32171,517.8391 250.95457,517.4738 250.58745,517.0461 250.12853,516.82949 249.57783,516.82949 249.08772,516.82949 248.6288,517.04426 248.20109,517.4738 247.83397,517.8391 247.6504,518.29801 247.6504,518.85054 V 523.25428 C 247.6504,523.80498 247.83397,524.26389 248.20109,524.63102 248.6288,524.99816 249.08772,525.18172 249.57783,525.18172 250.12853,525.18172 250.58745,524.99816 250.95457,524.63102 251.32171,524.26389 251.50527,523.80498 251.50527,523.25428 V 518.85054 z M 246.73258,481.58676 H 253.89162 V 560.97881 H 246.73258 V 481.58676 z"
                     style="fill:url(#linearGradient3250);fill-rule:evenodd" />
                <rect
                     id="rect102"
                     height="79.850975"
                     width="2.2027855"
                     style="fill:#a59e8e;fill-rule:evenodd"
                     y="481.58679"
                     x="252.42311" />
                <rect
                     id="rect104"
                     height="79.392059"
                     width="1.1013927"
                     style="fill:#d5ccb7;fill-rule:evenodd"
                     y="481.58679"
                     x="245.26404" />
                <rect
                     id="rect106"
                     height="79.944595"
                     width="1.2849582"
                     style="fill:#a59e8e;fill-rule:evenodd"
                     y="481.58679"
                     x="245.53941" />
                <path
                     inkscape:connector-curvature="0"
                     id="path112"
                     d="M 247.0997,504.716 C 246.42602,499.63675 245.63117,496.51613 244.71335,495.35233 244.16266,494.61991 242.9089,492.41528 240.95026,488.74398 L 238.19677,483.42058 251.78062,472.77378 252.79023,512.69926 249.11892,508.56904 247.0997,504.716 z"
                     style="fill:#57534b;fill-rule:evenodd" />
                <path
                     inkscape:connector-curvature="0"
                     id="path114"
                     d="M 237.46252,495.1706 234.43368,493.88564 238.93104,489.15884 C 238.36933,488.7146 238.06277,488.45394 238.01321,488.37868 237.95264,488.25752 238.50333,488.25752 239.6653,488.37868 L 238.93104,489.15884 C 239.74791,489.77745 241.09343,490.77238 242.96947,492.14177 245.78354,494.22341 248.26167,498.29305 250.40388,504.34887 251.50527,507.34833 252.30011,510.13119 252.79023,512.7011 L 246.54901,512.79289 C 246.42785,509.85584 245.44762,506.52229 243.61196,502.7904 241.8993,499.30082 239.84887,496.76028 237.46252,495.1706 z"
                     style="fill:#787367;fill-rule:evenodd" />
                <path
                     inkscape:connector-curvature="0"
                     id="path116"
                     d="M 232.13912,481.31141 243.42839,482.59636 243.88731,492.87603 C 243.58075,492.75488 242.66293,492.69246 241.13382,492.69246 239.84887,492.69246 238.34914,492.90541 236.63647,493.33495 L 234.43368,493.88564 232.13912,481.31141 z"
                     style="fill:#8f887b;fill-rule:evenodd" />
                <path
                     inkscape:connector-curvature="0"
                     id="path118"
                     d="M 251.41349,483.60597 V 500.494 C 250.25152,498.53536 248.99777,496.76028 247.6504,495.1706 L 245.26405,491.86642 V 487.18551 L 251.41349,483.60597 z"
                     style="fill:#47443d;fill-rule:evenodd" />
            </g>
            <g
                 id="g3800">
                <path
                     id="path3315"
                     d="M 699.68034,482.44697 V 560.00338 H 699.95568 L 701.60777,561.10477 699.68034,561.74725 691.87881,562.0226 V 482.63054 L 699.68034,482.44697 z M 696.83507,517.69154 C 696.28437,517.69154 695.82546,517.87511 695.45833,518.24223 695.0912,518.60937 694.90763,519.06829 694.90763,519.61898 V 524.02455 C 694.90763,524.57524 695.0912,525.03416 695.45833,525.40129 695.82546,525.76842 696.28437,525.95198 696.83507,525.95198 697.38576,525.95198 697.84468,525.76842 698.21181,525.40129 698.57895,525.03416 698.7625,524.57524 698.7625,524.02455 V 519.61898 C 698.7625,519.06829 698.57895,518.60937 698.21181,518.24223 697.84468,517.87511 697.38576,517.69154 696.83507,517.69154 z M 698.21181,529.34795 C 697.84468,528.92024 697.38576,528.70547 696.83507,528.70547 696.28437,528.70547 695.82546,528.92024 695.45833,529.34795 695.0912,529.71508 694.90763,530.17399 694.90763,530.72469 V 535.13026 C 694.90763,535.68096 695.0912,536.13987 695.45833,536.507 695.82546,536.87413 696.28437,537.0577 696.83507,537.0577 697.38576,537.0577 697.84468,536.87413 698.21181,536.507 698.57895,536.13987 698.7625,535.68096 698.7625,535.13026 V 530.72469 C 698.7625,530.17399 698.57895,529.71508 698.21181,529.34795 z M 698.21181,540.36187 C 697.84468,539.99474 697.38576,539.81118 696.83507,539.81118 696.28437,539.81118 695.82546,539.99474 695.45833,540.36187 695.0912,540.78959 694.90763,541.24849 694.90763,541.73862 V 546.23598 C 694.90763,546.72609 695.0912,547.185 695.45833,547.61271 695.82546,547.97984 696.28437,548.16341 696.83507,548.16341 697.38576,548.16341 697.84468,547.97984 698.21181,547.61271 698.57895,547.185 698.7625,546.72609 698.7625,546.23598 V 541.73862 C 698.7625,541.24849 698.57895,540.78959 698.21181,540.36187 z M 696.83507,551.10046 C 696.28437,551.10046 695.82546,551.28402 695.45833,551.65115 695.0912,552.07886 694.90763,552.53777 694.90763,553.02789 V 557.52525 C 694.90763,558.01537 695.0912,558.47428 695.45833,558.90199 695.82546,559.26911 696.28437,559.45268 696.83507,559.45268 697.38576,559.45268 697.84468,559.26911 698.21181,558.90199 698.57895,558.47428 698.7625,558.01537 698.7625,557.52525 V 553.02789 C 698.7625,552.53777 698.57895,552.07886 698.21181,551.65115 697.84468,551.28402 697.38576,551.10046 696.83507,551.10046 z"
                     style="opacity:0.30080004;fill-rule:evenodd"
                     inkscape:connector-curvature="0" />
                <path
                     inkscape:connector-curvature="0"
                     id="path122"
                     d="M 700.32281,481.58676 V 560.97881 H 693.25555 V 481.58676 H 700.32281 z M 698.85429,517.4738 C 698.48716,517.0461 698.02825,516.82949 697.47755,516.82949 696.98744,516.82949 696.52852,517.04426 696.1008,517.4738 695.73368,517.8391 695.55011,518.29801 695.55011,518.85054 V 523.25428 C 695.55011,523.80498 695.73368,524.26389 696.1008,524.63102 696.52852,524.99816 696.98744,525.18172 697.47755,525.18172 698.02825,525.18172 698.48716,524.99816 698.85429,524.63102 699.22142,524.26389 699.40499,523.80498 699.40499,523.25428 V 518.85054 C 699.40499,518.29985 699.22142,517.84094 698.85429,517.4738 z M 698.85429,528.48774 C 698.48716,528.1206 698.02825,527.9352 697.47755,527.9352 696.98744,527.9352 696.52852,528.1206 696.1008,528.48774 695.73368,528.91544 695.55011,529.37436 695.55011,529.86448 V 534.35999 C 695.55011,534.85011 695.73368,535.30903 696.1008,535.73673 696.52852,536.10386 696.98744,536.28927 697.47755,536.28927 698.02825,536.28927 698.48716,536.10386 698.85429,535.73673 699.22142,535.30903 699.40499,534.85011 699.40499,534.35999 V 529.86448 C 699.40499,529.37618 699.22142,528.91728 698.85429,528.48774 z M 698.85429,539.59344 C 698.48716,539.22631 698.02825,539.04274 697.47755,539.04274 696.98744,539.04274 696.52852,539.22631 696.1008,539.59344 695.73368,539.96058 695.55011,540.41948 695.55011,540.97018 V 545.37392 C 695.55011,545.92645 695.73368,546.38537 696.1008,546.75066 696.52852,547.11778 696.98744,547.30319 697.47755,547.30319 698.02825,547.30319 698.48716,547.11778 698.85429,546.75066 699.22142,546.38537 699.40499,545.92645 699.40499,545.37392 V 540.97018 C 699.40499,540.41948 699.22142,539.96058 698.85429,539.59344 z M 698.85429,550.88271 C 698.48716,550.51742 698.02825,550.33202 697.47755,550.33202 696.98744,550.33202 696.52852,550.51742 696.1008,550.88271 695.73368,551.31043 695.55011,551.76934 695.55011,552.25946 V 556.75682 C 695.55011,557.24693 695.73368,557.70584 696.1008,558.13356 696.52852,558.50068 696.98744,558.68425 697.47755,558.68425 698.02825,558.68425 698.48716,558.50068 698.85429,558.13356 699.22142,557.70584 699.40499,557.24693 699.40499,556.75682 V 552.25946 C 699.40499,551.76934 699.22142,551.31043 698.85429,550.88271 z"
                     style="fill:#8f887b;fill-rule:evenodd" />
                <path
                     inkscape:connector-curvature="0"
                     id="path129"
                     d="M 700.32281,481.58676 V 560.97881 H 693.25555 V 481.58676 H 700.32281 z M 698.85429,517.4738 C 698.48716,517.0461 698.02825,516.82949 697.47755,516.82949 696.98744,516.82949 696.52852,517.04426 696.1008,517.4738 695.73368,517.8391 695.55011,518.29801 695.55011,518.85054 V 523.25428 C 695.55011,523.80498 695.73368,524.26389 696.1008,524.63102 696.52852,524.99816 696.98744,525.18172 697.47755,525.18172 698.02825,525.18172 698.48716,524.99816 698.85429,524.63102 699.22142,524.26389 699.40499,523.80498 699.40499,523.25428 V 518.85054 C 699.40499,518.29985 699.22142,517.84094 698.85429,517.4738 z M 698.85429,528.48774 C 698.48716,528.1206 698.02825,527.9352 697.47755,527.9352 696.98744,527.9352 696.52852,528.1206 696.1008,528.48774 695.73368,528.91544 695.55011,529.37436 695.55011,529.86448 V 534.35999 C 695.55011,534.85011 695.73368,535.30903 696.1008,535.73673 696.52852,536.10386 696.98744,536.28927 697.47755,536.28927 698.02825,536.28927 698.48716,536.10386 698.85429,535.73673 699.22142,535.30903 699.40499,534.85011 699.40499,534.35999 V 529.86448 C 699.40499,529.37618 699.22142,528.91728 698.85429,528.48774 z M 698.85429,539.59344 C 698.48716,539.22631 698.02825,539.04274 697.47755,539.04274 696.98744,539.04274 696.52852,539.22631 696.1008,539.59344 695.73368,539.96058 695.55011,540.41948 695.55011,540.97018 V 545.37392 C 695.55011,545.92645 695.73368,546.38537 696.1008,546.75066 696.52852,547.11778 696.98744,547.30319 697.47755,547.30319 698.02825,547.30319 698.48716,547.11778 698.85429,546.75066 699.22142,546.38537 699.40499,545.92645 699.40499,545.37392 V 540.97018 C 699.40499,540.41948 699.22142,539.96058 698.85429,539.59344 z M 698.85429,550.88271 C 698.48716,550.51742 698.02825,550.33202 697.47755,550.33202 696.98744,550.33202 696.52852,550.51742 696.1008,550.88271 695.73368,551.31043 695.55011,551.76934 695.55011,552.25946 V 556.75682 C 695.55011,557.24693 695.73368,557.70584 696.1008,558.13356 696.52852,558.50068 696.98744,558.68425 697.47755,558.68425 698.02825,558.68425 698.48716,558.50068 698.85429,558.13356 699.22142,557.70584 699.40499,557.24693 699.40499,556.75682 V 552.25946 C 699.40499,551.76934 699.22142,551.31043 698.85429,550.88271 z"
                     style="fill:url(#linearGradient3236);fill-rule:evenodd" />
                <path
                     inkscape:connector-curvature="0"
                     id="path136"
                     d="M 700.32281,481.58676 V 560.97881 H 693.25555 V 481.58676 H 700.32281 z M 698.85429,517.4738 C 698.48716,517.0461 698.02825,516.82949 697.47755,516.82949 696.98744,516.82949 696.52852,517.04426 696.1008,517.4738 695.73368,517.8391 695.55011,518.29801 695.55011,518.85054 V 523.25428 C 695.55011,523.80498 695.73368,524.26389 696.1008,524.63102 696.52852,524.99816 696.98744,525.18172 697.47755,525.18172 698.02825,525.18172 698.48716,524.99816 698.85429,524.63102 699.22142,524.26389 699.40499,523.80498 699.40499,523.25428 V 518.85054 C 699.40499,518.29985 699.22142,517.84094 698.85429,517.4738 z M 698.85429,528.48774 C 698.48716,528.1206 698.02825,527.9352 697.47755,527.9352 696.98744,527.9352 696.52852,528.1206 696.1008,528.48774 695.73368,528.91544 695.55011,529.37436 695.55011,529.86448 V 534.35999 C 695.55011,534.85011 695.73368,535.30903 696.1008,535.73673 696.52852,536.10386 696.98744,536.28927 697.47755,536.28927 698.02825,536.28927 698.48716,536.10386 698.85429,535.73673 699.22142,535.30903 699.40499,534.85011 699.40499,534.35999 V 529.86448 C 699.40499,529.37618 699.22142,528.91728 698.85429,528.48774 z M 698.85429,539.59344 C 698.48716,539.22631 698.02825,539.04274 697.47755,539.04274 696.98744,539.04274 696.52852,539.22631 696.1008,539.59344 695.73368,539.96058 695.55011,540.41948 695.55011,540.97018 V 545.37392 C 695.55011,545.92645 695.73368,546.38537 696.1008,546.75066 696.52852,547.11778 696.98744,547.30319 697.47755,547.30319 698.02825,547.30319 698.48716,547.11778 698.85429,546.75066 699.22142,546.38537 699.40499,545.92645 699.40499,545.37392 V 540.97018 C 699.40499,540.41948 699.22142,539.96058 698.85429,539.59344 z M 698.85429,550.88271 C 698.48716,550.51742 698.02825,550.33202 697.47755,550.33202 696.98744,550.33202 696.52852,550.51742 696.1008,550.88271 695.73368,551.31043 695.55011,551.76934 695.55011,552.25946 V 556.75682 C 695.55011,557.24693 695.73368,557.70584 696.1008,558.13356 696.52852,558.50068 696.98744,558.68425 697.47755,558.68425 698.02825,558.68425 698.48716,558.50068 698.85429,558.13356 699.22142,557.70584 699.40499,557.24693 699.40499,556.75682 V 552.25946 C 699.40499,551.76934 699.22142,551.31043 698.85429,550.88271 z"
                     style="fill:url(#linearGradient3233);fill-rule:evenodd" />
                <rect
                     id="rect138"
                     height="79.850975"
                     width="2.1110027"
                     style="fill:#a59e8e;fill-rule:evenodd"
                     y="481.58679"
                     x="692.52124" />
                <rect
                     id="rect140"
                     height="79.392059"
                     width="1.0114456"
                     style="fill:#d5ccb7;fill-rule:evenodd"
                     y="481.58679"
                     x="700.78174" />
                <rect
                     id="rect142"
                     height="79.944595"
                     width="1.2849582"
                     style="fill:#a59e8e;fill-rule:evenodd"
                     y="481.58679"
                     x="700.32281" />
                <path
                     inkscape:connector-curvature="0"
                     id="path148"
                     d="M 700.04746,504.716 697.93646,508.57088 694.26516,512.7011 695.27476,472.77562 708.95039,483.42242 C 705.46449,490.21433 703.25986,494.19219 702.34204,495.35416 701.79134,496.08843 701.23881,497.86351 700.68995,500.67756 700.4458,502.08551 700.23103,503.43105 700.04746,504.716 z"
                     style="fill:#57534b;fill-rule:evenodd" />
                <path
                     inkscape:connector-curvature="0"
                     id="path150"
                     d="M 708.12435,489.15884 712.71349,493.88564 C 711.85807,494.0068 710.84663,494.43634 709.68649,495.1706 707.30013,496.76028 705.24971,499.30082 703.53521,502.78857 702.37324,505.11434 701.51599,507.46949 700.96713,509.85584 700.72115,511.08022 700.56879,512.05862 700.50822,512.79289 L 694.267,512.7011 C 694.75711,510.13303 695.55195,507.34833 696.65334,504.34887 698.79555,498.29121 701.27368,494.22157 704.08958,492.14177 705.95461,490.77605 707.30013,489.78112 708.12435,489.15884 L 707.39192,488.37868 C 708.61447,488.25752 709.19637,488.25752 709.13579,488.37868 709.05686,488.45394 708.72277,488.7146 708.12435,489.15884 z"
                     style="fill:#787367;fill-rule:evenodd" />
                <path
                     inkscape:connector-curvature="0"
                     id="path152"
                     d="M 714.91627,481.31141 712.71349,493.88564 C 710.26656,493.08897 708.0032,492.6943 705.9234,492.6943 704.94316,492.6943 704.20889,492.72551 703.72061,492.78609 L 703.16992,492.87787 703.62883,482.5982 714.91627,481.31141 z"
                     style="fill:#8f887b;fill-rule:evenodd" />
                <path
                     inkscape:connector-curvature="0"
                     id="path154"
                     d="M 695.6419,483.60597 701.88312,487.18551 V 491.86642 C 701.57657,492.41712 700.75053,493.51667 699.40315,495.1706 L 695.64006,500.494 V 483.60597 z"
                     style="fill:#47443d;fill-rule:evenodd" />
            </g>
            <g
                 transform="translate(0,40)"
                 id="g3771">
                <path
                     inkscape:connector-curvature="0"
                     id="path161"
                     d="M 728.13299,434.79483 721.7082,439.38397 H 475.54691 C 463.24802,439.38397 432.25667,440.48537 382.57101,442.68815 L 381.65318,442.59636 C 376.88047,442.47338 369.72143,442.53396 360.17602,442.77993 350.57004,443.02591 343.37978,443.08649 338.60708,442.9635 315.2337,442.23107 297.73256,441.74095 286.10736,441.49497 265.85275,441.12784 248.35345,441.37383 233.60764,442.22924 229.20207,442.4128 225.04064,443.3912 221.12518,445.16628 215.61823,443.45178 210.23425,441.68038 204.97143,439.84472 218.37171,433.72464 229.90512,428.58481 239.57352,424.42522 L 253.98341,418.184 C 299.87477,417.38916 334.07852,416.56311 356.59649,415.70587 379.11447,414.84861 470.25472,414.42091 630.01725,414.42091 H 704.82017 L 728.13299,434.79483 z"
                     style="fill:url(#linearGradient3813);fill-rule:evenodd" />
                <path
                     style="fill:#c2aa5a;fill-rule:evenodd"
                     d="M 647.54774,435.80445 C 660.58273,435.74387 670.86056,435.4979 678.38858,435.07018 682.97771,434.82605 691.26937,434.36713 703.2617,433.69344 707.60486,433.50987 712.16463,433.26574 716.93733,432.96101 718.71057,432.83802 721.64762,432.74624 725.74847,432.68567 L 726.84986,433.69528 C 718.0993,433.75586 705.83162,434.33959 690.04499,435.43914 683.43663,435.92927 651.2833,436.47813 593.58134,437.09124 538.75584,437.70252 503.32771,437.94665 487.29693,437.82367 462.75974,437.76309 443.05767,437.6713 428.18886,437.55015 400.9606,437.30418 382.87756,436.90584 373.94526,436.35698 352.65168,435.07202 335.00002,434.42954 320.98664,434.42954 283.84584,434.06241 261.81798,434.00183 254.90307,434.24414 250.92521,434.36713 246.03135,434.76547 240.21783,435.43732 233.73063,436.10917 229.81518,436.4763 228.46964,436.53871 220.69932,437.51895 213.56964,438.28258 207.08427,438.83327 L 210.84736,437.18302 C 213.72199,436.81589 217.63928,436.2652 222.59555,435.53093 226.75698,434.98024 230.42829,434.67368 233.60947,434.6131 236.54652,434.55252 240.82911,434.30839 246.45905,433.88068 251.41533,433.51355 257.68776,433.32815 265.27452,433.32815 269.98481,433.32815 275.86074,433.207 282.8968,432.96285 287.30238,432.77746 293.87952,432.83986 302.63009,433.14642 310.82812,433.39239 318.81322,433.54476 326.58538,433.60534 335.70307,433.60534 343.80933,433.69711 350.9078,433.88068 354.45612,433.94125 367.21392,434.40017 389.18121,435.25742 406.00865,435.8687 419.92842,436.17525 430.94234,436.17525 449.72659,436.17525 464.47424,436.11283 475.18162,435.98985 568.6146,435.98801 626.07059,435.92744 647.54774,435.80445 z"
                     id="path165"
                     inkscape:connector-curvature="0" />
                <path
                     style="fill:#c2aa5a;fill-rule:evenodd"
                     d="M 713.63131,427.544 C 701.76197,427.29803 692.73605,427.17687 686.55541,427.17687 H 659.02058 C 656.57366,427.23745 653.57604,427.45222 650.02772,427.81935 645.62214,428.18647 641.91963,428.46366 638.92201,428.64539 635.92254,428.8308 610.34638,428.98315 562.18981,429.10431 514.21865,429.2897 488.09178,429.50265 483.80919,429.74862 472.73285,430.35989 466.21628,430.69765 464.25947,430.75823 453.91923,431.06294 438.59151,431.12536 418.27633,430.9418 393.55557,430.82065 377.12646,430.69765 368.989,430.57466 356.7507,430.51409 342.86213,430.30115 327.31965,429.93219 302.78244,429.32091 271.36338,428.89321 233.05878,428.64723 L 229.66281,428.73901 232.59986,427.45588 261.23608,427.36227 C 283.01979,427.42468 308.65654,427.82118 338.15,428.55545 369.90683,429.35212 386.82606,429.74862 388.90585,429.74862 395.6372,429.8092 406.6805,429.93219 422.03942,430.11392 436.05097,430.2369 447.83036,430.17632 457.37577,429.93035 467.53244,429.62379 499.68761,429.13367 553.83942,428.46182 604.38049,427.84872 633.50683,427.544 641.2184,427.544 645.19444,427.544 648.77396,427.20624 651.95699,426.53439 655.0776,425.80012 657.61631,425.43116 659.57495,425.43116 660.12565,425.43116 661.77591,425.49174 664.52939,425.61656 667.34528,425.73772 674.32076,425.80012 685.45584,425.80012 693.59515,425.80012 700.20166,425.89191 705.28092,426.07547 708.28038,426.19663 712.77774,426.38019 718.77481,426.62618 L 719.96616,427.63578 713.63131,427.544 z"
                     id="path167"
                     inkscape:connector-curvature="0" />
                <path
                     style="fill:#c2aa5a;fill-rule:evenodd"
                     d="M 229.11028,447.46085 225.53076,446.45124 C 248.78299,445.28744 266.03631,444.92215 277.29622,445.34985 279.55958,445.53341 290.84886,445.65456 311.16405,445.71514 299.17171,446.26767 290.48172,446.69539 285.09775,447.0001 L 229.11028,447.46085 z"
                     id="path169"
                     inkscape:connector-curvature="0" />
                <path
                     style="fill:#c2aa5a;fill-rule:evenodd"
                     d="M 687.19788,422.03703 C 690.99035,422.46475 699.61976,422.67952 713.08061,422.67952 H 714.27379 L 716.20123,424.3316 H 698.12003 C 686.86012,424.3316 680.34355,424.21045 678.57031,423.96448 670.49342,422.86309 663.97685,422.31238 659.02058,422.31238 655.77699,422.2518 653.42184,422.2206 651.95332,422.2206 649.50639,422.2206 648.03603,422.43537 647.54774,422.86491 647.40273,422.99341 645.65886,423.14761 642.31613,423.32383 641.97286,423.67627 641.60757,423.95346 641.21474,424.14804 640.17393,424.70057 636.89912,425.18885 631.39215,425.6184 626.524,425.97268 599.49398,426.15808 550.30211,426.1691 522.1083,426.84095 503.21573,427.17871 493.62627,427.17871 469.09092,427.23929 448.40859,427.29985 431.58115,427.36227 399.70134,427.36227 380.48937,427.30169 373.9416,427.17871 363.17181,426.93273 354.14774,426.81157 346.86569,426.81157 H 325.0214 C 316.6398,426.81157 301.95456,426.44444 280.96569,425.71018 260.03923,424.9135 248.10748,424.51701 245.17043,424.51701 H 239.38812 L 239.57168,424.42522 243.33478,422.86491 C 253.00316,422.86491 266.06569,423.10906 282.526,423.59734 296.59996,424.02504 309.54132,424.57575 321.35009,425.24943 326.67349,425.49357 332.70179,425.55415 339.43129,425.433 344.93826,425.31184 347.66053,425.15948 347.59996,424.97408 347.59996,424.9135 352.92335,424.94288 363.57015,425.06587 404.8118,425.55599 433.60037,425.86254 449.9377,425.98369 489.98801,426.09384 523.44465,426.1544 550.30211,426.1691 558.79935,425.94882 568.14651,425.70283 578.34173,425.43483 611.78736,424.5372 633.11033,423.83414 642.3143,423.32567 642.5052,423.1366 642.68877,422.92365 642.86499,422.68135 643.66167,422.37663 643.96822,421.88468 643.78281,421.21283 644.39592,420.78512 647.54592,420.57035 653.23644,420.57035 656.48004,420.57035 659.96594,420.44736 663.69967,420.20321 665.65648,420.01782 669.45077,420.14265 675.07889,420.57035 680.09941,420.93564 684.13785,421.42392 687.19788,422.03703 z"
                     id="path171"
                     inkscape:connector-curvature="0" />
                <path
                     style="fill:#c2aa5a;fill-rule:evenodd"
                     d="M 660.12198,416.07116 C 665.68952,416.13174 672.60443,416.56128 680.86487,417.35612 690.16431,418.21153 699.92631,418.79344 710.14357,419.09815 L 711.24496,420.01598 C 697.04984,419.52586 684.41503,418.91459 673.34053,418.18033 666.42562,417.75262 661.13342,417.56905 657.46211,417.62963 653.3631,417.81504 649.47702,417.93618 645.80571,417.99676 529.3628,421.85164 466.55404,423.77907 457.37577,423.77907 450.8904,423.77907 434.98078,423.59367 409.64875,423.22654 400.16392,423.10539 387.74388,422.83004 372.38497,422.40233 357.02604,422.03521 347.75599,421.82043 344.57479,421.75802 335.76365,421.4533 326.95251,421.2991 318.14137,421.2991 L 247.55862,421.02743 250.12853,419.9242 256.64511,420.01598 C 264.90555,420.13897 272.89065,420.29133 280.60039,420.4749 285.67966,420.5373 291.49134,420.5061 298.03912,420.38311 303.42309,420.26195 307.92045,420.1096 311.53117,419.9242 314.28466,419.86362 319.36391,419.89299 326.76711,420.01598 328.9699,420.0784 332.48884,420.26195 337.32212,420.56851 340.99343,420.81265 353.56767,421.05863 375.04483,421.30094 385.75219,421.4221 403.55805,421.91405 428.46237,422.76946 440.21056,423.1366 451.95875,422.80067 463.70694,421.75985 477.28895,420.59788 511.61753,419.28172 566.68716,417.81504 617.22824,416.53008 648.3738,415.95 660.12198,416.07116 z"
                     id="path173"
                     inkscape:connector-curvature="0" />
                <path
                     style="fill:#c2aa5a;fill-rule:evenodd"
                     d="M 712.43814,431.12352 C 707.29831,431.12352 699.80149,431.52002 689.95136,432.31487 680.09941,433.11154 671.89954,433.50805 665.35359,433.50805 L 482.70596,433.14091 C 463.55458,434.54886 447.64496,435.1895 434.97894,435.06834 423.59789,435.00777 410.93187,434.82421 396.9809,434.51765 380.76656,434.15052 370.97518,433.75218 367.61043,433.32448 363.02128,432.77378 347.69357,432.34607 321.62727,432.04135 310.8575,431.91836 287.27117,431.85595 250.86279,431.85595 244.62157,431.85595 239.94065,431.94774 236.82003,432.1313 235.10553,432.25245 232.13912,432.52964 227.91711,432.95734 227.48941,433.01792 223.6639,433.56861 216.44427,434.6076 L 220.84984,432.68017 C 223.54275,432.25245 226.20445,431.76233 228.83493,431.21164 230.97715,430.90509 234.3107,430.75272 238.83926,430.75272 H 280.78396 C 287.33174,430.75272 295.99053,430.72152 306.75848,430.66094 317.40527,430.72152 331.53981,431.05744 349.1621,431.67055 362.99192,432.16067 379.29804,432.83252 398.08229,433.68977 412.21683,434.17989 424.51571,434.24046 434.97894,433.87517 442.87226,433.56861 450.64443,433.23086 458.29176,432.86373 463.73814,432.55901 469.36626,432.34423 475.17978,432.22125 481.3586,432.1001 510.36193,432.06888 562.18797,432.12946 617.32002,432.25062 648.06724,432.28183 654.42961,432.22125 662.99662,432.16067 667.55455,432.1001 668.10525,432.03768 670.24745,431.79171 674.49882,431.54756 680.86304,431.30342 698.54773,430.63157 712.58866,430.2938 722.99131,430.2938 L 724.00092,431.11986 H 712.43814 z"
                     id="path175"
                     inkscape:connector-curvature="0" />
                <path
                     style="fill:#c2aa5a;fill-rule:evenodd"
                     d="M 651.21905,414.41907 H 677.01184 C 673.34053,414.66504 670.40164,414.7862 668.19886,414.7862 654.43145,415.27632 645.43857,415.52046 641.21658,415.52046 L 491.33355,415.33689 C 488.51948,415.33689 481.11629,415.79581 469.12212,416.71363 457.12796,417.57089 447.8579,417.99859 441.31195,417.99859 403.68104,417.57089 378.53257,417.35612 365.86655,417.35612 326.76711,417.35612 301.46628,417.4479 289.96224,417.62963 282.19191,417.8756 277.05207,418.05733 274.54274,418.18033 270.62728,418.24274 266.16114,418.21153 261.14245,418.08855 305.25875,417.17071 335.39469,416.43829 351.54844,415.88575 364.45861,416.07116 383.2447,416.34467 407.90304,416.71181 427.30041,416.8972 440.54832,416.6806 447.64496,416.06932 455.23172,415.39564 464.40999,414.87615 475.17978,414.50718 L 647.54592,414.4154 C 648.16085,414.47965 649.3834,414.47965 651.21905,414.41907 z"
                     id="path177"
                     inkscape:connector-curvature="0" />
                <path
                     style="fill:#c2aa5a;fill-rule:evenodd"
                     d="M 696.92686,417.35612 692.33771,416.98898 695.73368,416.43829 C 698.73314,416.01058 702.09789,415.64162 705.82978,415.33506 L 706.93301,416.34467 704.45304,416.62002 707.39192,416.71181 708.76866,417.81504 C 704.60723,417.75262 700.65874,417.60025 696.92686,417.35612 z"
                     id="path179"
                     inkscape:connector-curvature="0" />
                <path
                     style="fill:#c2aa5a;fill-rule:evenodd"
                     d="M 268.20973,444.24846 C 260.07044,444.00431 254.68646,443.88132 252.05596,443.88132 251.56585,443.88132 241.31739,444.30904 221.30875,445.16628 L 217.72923,444.06489 C 226.05025,443.33063 231.06893,442.93229 232.78159,442.87171 237.31015,442.567 243.55138,442.38159 251.50527,442.32101 258.1742,442.26045 263.83536,442.38159 268.48508,442.68815 273.56433,443.05528 279.37602,443.23885 285.92379,443.23885 293.20584,443.23885 298.98815,443.14707 303.27073,442.9635 307.61572,442.77993 311.80652,442.68999 315.84497,442.68999 325.02324,442.68999 333.25248,442.68999 340.53452,442.68999 L 371.18995,442.78177 C 360.23844,443.27189 352.22213,443.66839 347.14288,443.97495 316.67101,444.40265 297.0295,444.61742 288.21836,444.61742 283.01796,444.61559 276.34718,444.49443 268.20973,444.24846 z"
                     id="path181"
                     inkscape:connector-curvature="0" />
                <path
                     style="fill:#c2aa5a;fill-rule:evenodd"
                     d="M 659.02058,439.10862 C 670.64763,439.1692 680.46837,438.95626 688.48468,438.46614 696.92868,437.91361 706.44289,437.6401 717.02911,437.6401 H 724.27994 L 722.07716,439.20041 631.67117,439.3858 C 636.0125,439.07742 645.13019,438.98748 659.02058,439.10862 z"
                     id="path183"
                     inkscape:connector-curvature="0" />
                <path
                     style="fill:#c2aa5a;fill-rule:evenodd"
                     d="M 363.57199,439.38397 C 377.46238,439.38397 396.27785,439.62811 420.01836,440.1164 L 434.33647,440.57531 411.48257,441.49313 C 394.47156,441.06543 378.50136,440.85066 363.57199,440.85066 357.63732,440.85066 344.94009,440.60469 325.48215,440.1164 305.22937,439.5657 293.38941,439.29035 289.96224,439.29035 281.21167,439.1692 264.75319,439.38397 240.58312,439.93466 238.62632,439.99524 234.8614,440.333 229.29385,440.94428 220.91041,441.80153 215.49524,442.35223 213.04831,442.59636 L 210.01948,441.58492 214.05792,441.21962 C 214.42505,441.21962 221.85945,440.36238 236.36113,438.64971 240.33899,438.222 249.79077,438.00723 264.72199,438.00723 280.32504,438.00723 294.82672,438.1908 308.227,438.55792 315.6302,438.74149 325.08381,439.01684 336.58786,439.38397 342.64552,439.56754 346.3462,439.62811 347.69357,439.56754 350.99775,439.44638 356.28994,439.38397 363.57199,439.38397 z"
                     id="path185"
                     inkscape:connector-curvature="0" />
                <path
                     inkscape:connector-curvature="0"
                     id="path196"
                     d="M 730.1522,445.16628 H 438.00778 C 397.0121,445.16628 319.76042,446.08412 206.25639,447.91976 L 205.70569,439.47576 C 330.89733,437.39412 405.97561,436.35514 430.9405,436.35514 455.90541,436.35514 541.17157,435.98801 686.73897,435.25375 H 728.95903 L 730.1522,445.16628 z"
                     style="fill:#a68a44;fill-rule:evenodd" />
                <path
                     id="path3275"
                     d="M 730.15201,445.83304 H 438.00759 C 397.01191,445.83304 319.76023,446.75086 206.2562,448.58652 L 205.70551,440.1425 C 330.89715,438.06271 405.97542,437.0219 430.94032,437.0219 455.90523,437.0219 541.17138,436.65476 686.73879,435.9205 H 728.95884 L 730.15201,445.83304 z"
                     style="opacity:0.07809999;fill:url(#radialGradient3815);fill-rule:evenodd"
                     inkscape:connector-curvature="0" />
            </g>
        </g>
    </g>
</svg>
