<?xml version="1.0" encoding="UTF-8" standalone="no"?>
<!-- Created with Inkscape (http://www.inkscape.org/) -->

<svg
   xmlns:dc="http://purl.org/dc/elements/1.1/"
   xmlns:cc="http://creativecommons.org/ns#"
   xmlns:rdf="http://www.w3.org/1999/02/22-rdf-syntax-ns#"
   xmlns:svg="http://www.w3.org/2000/svg"
   xmlns="http://www.w3.org/2000/svg"
   xmlns:xlink="http://www.w3.org/1999/xlink"
   xmlns:sodipodi="http://sodipodi.sourceforge.net/DTD/sodipodi-0.dtd"
   xmlns:inkscape="http://www.inkscape.org/namespaces/inkscape"
   id="svg5565"
   inkscape:export-ydpi="90"
   inkscape:export-filename="/media/Transcend/box.png"
   viewBox="0 0 361 361"
   inkscape:export-xdpi="90"
   version="1.1"
   inkscape:version="0.91 r13725"
   sodipodi:docname="AppSpace-icon.svg"
   width="361"
   height="361">
  <sodipodi:namedview
     id="base"
     inkscape:zoom="0.47140453"
     borderopacity="1.0"
     inkscape:current-layer="layer1"
     inkscape:cx="-918.13495"
     inkscape:cy="195.73963"
     inkscape:snap-grids="false"
     inkscape:snap-bbox-midpoints="true"
     inkscape:object-paths="true"
     inkscape:snap-page="true"
     inkscape:window-maximized="1"
     inkscape:snap-bbox="false"
     showgrid="false"
     inkscape:snap-nodes="true"
     inkscape:snap-global="true"
     showguides="false"
     bordercolor="#666666"
     inkscape:window-x="-8"
     inkscape:guide-bbox="true"
     inkscape:snap-smooth-nodes="true"
     inkscape:snap-bbox-edge-midpoints="true"
     inkscape:object-nodes="true"
     inkscape:window-y="-8"
     inkscape:window-width="1920"
     inkscape:pageopacity="0"
     inkscape:pageshadow="2"
     pagecolor="#8f8f8f"
     inkscape:bbox-paths="true"
     inkscape:document-units="px"
     inkscape:bbox-nodes="true"
     inkscape:window-height="1137"
     fit-margin-top="0"
     fit-margin-left="0"
     fit-margin-right="0"
     fit-margin-bottom="0">
    <inkscape:grid
       id="grid5575"
       enabled="true"
       visible="true"
       snapvisiblegridlinesonly="true"
       type="xygrid"
       empspacing="5"
       originx="-336.49273"
       originy="-15.879656" />
    <sodipodi:guide
       id="guide5577"
       position="-335.98023,-14.817156"
       orientation="1,0" />
    <sodipodi:guide
       id="guide5579"
       position="-335.98023,-15.767156"
       orientation="-0.48925097,-0.87214304" />
    <sodipodi:guide
       id="guide5581"
       position="-335.98023,-15.767156"
       orientation="-0.50798502,0.8613659" />
    <sodipodi:guide
       id="guide5583"
       position="-335.98023,-15.217156"
       orientation="0.47409982,0.8804711" />
    <sodipodi:guide
       id="guide5589"
       position="-335.98023,-15.354656"
       orientation="0,1" />
    <sodipodi:guide
       id="guide5591"
       position="-335.6411,-15.567156"
       orientation="0,1" />
  </sodipodi:namedview>
  <defs
     id="defs5567">
    <linearGradient
       id="linearGradient14419"
       inkscape:collect="always">
      <stop
         id="stop14421"
         style="stop-color:#ffffff"
         offset="0" />
      <stop
         id="stop14423"
         style="stop-color:#ffffff;stop-opacity:0"
         offset="1" />
    </linearGradient>
    <linearGradient
       id="linearGradient8144"
       inkscape:collect="always">
      <stop
         id="stop8146"
         style="stop-color:#000000"
         offset="0" />
      <stop
         id="stop8148"
         style="stop-color:#000000;stop-opacity:0"
         offset="1" />
    </linearGradient>
    <linearGradient
       id="linearGradient8046">
      <stop
         id="stop8048"
         style="stop-color:#d2b77b"
         offset="0" />
      <stop
         id="stop8050"
         style="stop-color:#ceb476"
         offset=".5" />
      <stop
         id="stop8052"
         style="stop-color:#926b32"
         offset="1" />
    </linearGradient>
    <linearGradient
       id="linearGradient7771">
      <stop
         id="stop7773"
         style="stop-color:#ffffff"
         offset="0" />
      <stop
         id="stop7775"
         style="stop-color:#ffef85;stop-opacity:0"
         offset="1" />
    </linearGradient>
    <linearGradient
       id="linearGradient6170">
      <stop
         id="stop6172"
         style="stop-color:#fefdfc"
         offset="0" />
      <stop
         id="stop6174"
         style="stop-color:#dba932"
         offset="1" />
    </linearGradient>
    <linearGradient
       id="linearGradient6117">
      <stop
         id="stop6119"
         style="stop-color:#ede2ca"
         offset="0" />
      <stop
         id="stop6139"
         style="stop-color:#ceb476"
         offset=".5" />
      <stop
         id="stop6121"
         style="stop-color:#926b32"
         offset="1" />
    </linearGradient>
    <radialGradient
       id="radialGradient6197"
       gradientUnits="userSpaceOnUse"
       xlink:href="#linearGradient6117"
       cx="195.53999"
       cy="293.53"
       r="55"
       gradientTransform="matrix(1.7068,0,0,2.4826,215.67497,241.13515)"
       inkscape:collect="always" />
    <radialGradient
       id="radialGradient6348"
       cx="207.25999"
       xlink:href="#linearGradient6170"
       gradientUnits="userSpaceOnUse"
       cy="183.8"
       r="105"
       gradientTransform="matrix(1.9184,0,0,1.0049,123.00197,660.55235)"
       inkscape:collect="always" />
    <linearGradient
       id="linearGradient6376"
       y2="122"
       xlink:href="#linearGradient8046"
       gradientUnits="userSpaceOnUse"
       y1="204.42999"
       x2="159.86"
       x1="235.78999"
       inkscape:collect="always"
       gradientTransform="translate(313.59197,663.33515)" />
    <filter
       id="filter7233"
       height="1.2817"
       width="1.1476001"
       y="-0.14086001"
       x="-0.073784001"
       inkscape:collect="always">
      <feGaussianBlur
         id="feGaussianBlur7235"
         stdDeviation="6.4561404"
         inkscape:collect="always" />
    </filter>
    <filter
       id="filter7251"
       inkscape:collect="always">
      <feGaussianBlur
         id="feGaussianBlur7253"
         stdDeviation="2.245614"
         inkscape:collect="always" />
    </filter>
    <filter
       id="filter7300"
       inkscape:collect="always">
      <feGaussianBlur
         id="feGaussianBlur7302"
         stdDeviation="1.7142857"
         inkscape:collect="always" />
    </filter>
    <radialGradient
       id="radialGradient7330"
       xlink:href="#linearGradient6117"
       gradientUnits="userSpaceOnUse"
       cy="254.41"
       cx="148.11"
       gradientTransform="matrix(1.7546,0.47016,-0.32911,1.2283,296.94297,545.72515)"
       r="75"
       inkscape:collect="always" />
    <radialGradient
       id="radialGradient7807"
       xlink:href="#linearGradient7771"
       gradientUnits="userSpaceOnUse"
       cy="198.91"
       cx="251"
       gradientTransform="matrix(1,0,0,0.64268,313.59197,750.81015)"
       r="77.5"
       inkscape:collect="always" />
    <radialGradient
       id="radialGradient7811"
       xlink:href="#linearGradient7771"
       gradientUnits="userSpaceOnUse"
       cy="224.37"
       cx="138.82001"
       gradientTransform="matrix(1.0343,0.27715,-0.194,0.72403,372.53997,683.90915)"
       r="75"
       inkscape:collect="always" />
    <filter
       id="filter7863"
       inkscape:collect="always">
      <feGaussianBlur
         id="feGaussianBlur7865"
         stdDeviation="0.95175439"
         inkscape:collect="always" />
    </filter>
    <radialGradient
       id="radialGradient7875"
       xlink:href="#linearGradient7771"
       gradientUnits="userSpaceOnUse"
       cy="220"
       cx="152.5"
       gradientTransform="matrix(2.0585,0,0,1.5293,-161.42,-116.44)"
       r="52.5"
       inkscape:collect="always" />
    <filter
       id="filter7881"
       inkscape:collect="always">
      <feGaussianBlur
         id="feGaussianBlur7883"
         stdDeviation="1.3596491"
         inkscape:collect="always" />
    </filter>
    <mask
       id="mask7935"
       maskUnits="userSpaceOnUse">
      <path
         id="path7937"
         sodipodi:nodetypes="ccccc"
         style="fill:#ffffff"
         d="M 255,294.62 205,245 l 105,-50 50,40 -105,59.615 z"
         inkscape:connector-curvature="0" />
    </mask>
    <mask
       id="mask7941"
       maskUnits="userSpaceOnUse">
      <path
         id="path7943"
         sodipodi:nodetypes="ccccc"
         style="fill:#ffffff"
         d="m 160,300 45,-55 -105,-50 -45,45 105,60 z"
         inkscape:connector-curvature="0" />
    </mask>
    <mask
       id="mask7947"
       maskUnits="userSpaceOnUse">
      <path
         id="path7949"
         style="fill:#ffffff"
         d="m 205,135 -45,10 -100,55 40,-5 0,100 105,-50 105,50.375 0,-100.38 35,0 -105,-50.38 -35,-9.62 z"
         inkscape:connector-curvature="0" />
    </mask>
    <radialGradient
       id="radialGradient8056"
       xlink:href="#linearGradient7771"
       gradientUnits="userSpaceOnUse"
       cy="160.08"
       cx="116.36"
       gradientTransform="matrix(0.62936,-0.36336,0.024588,0.042588,384.67097,867.52515)"
       r="75"
       inkscape:collect="always" />
    <radialGradient
       id="radialGradient8064"
       xlink:href="#linearGradient14419"
       gradientUnits="userSpaceOnUse"
       cy="160.08"
       cx="116.36"
       gradientTransform="matrix(0.61773,-0.3828,0.09216,0.14872,375.20797,852.79515)"
       r="75"
       inkscape:collect="always" />
    <radialGradient
       id="radialGradient8072"
       xlink:href="#linearGradient14419"
       gradientUnits="userSpaceOnUse"
       cy="165"
       cx="152.5"
       gradientTransform="matrix(1,0,0,0.57143,313.59197,734.04915)"
       r="52.5"
       inkscape:collect="always" />
    <filter
       id="filter8074"
       inkscape:collect="always">
      <feGaussianBlur
         id="feGaussianBlur8076"
         stdDeviation="2.0263158"
         inkscape:collect="always" />
    </filter>
    <radialGradient
       id="radialGradient8080"
       xlink:href="#linearGradient7771"
       gradientUnits="userSpaceOnUse"
       cy="112.05"
       cx="259.51001"
       gradientTransform="matrix(0.67018,0.30379,-0.028636,0.063172,403.36897,744.12615)"
       r="77.5"
       inkscape:collect="always" />
    <radialGradient
       id="radialGradient8092"
       xlink:href="#linearGradient14419"
       gradientUnits="userSpaceOnUse"
       cy="165"
       cx="257.5"
       gradientTransform="matrix(1,0,0,0.58716,313.59197,731.45415)"
       r="54.5"
       inkscape:collect="always" />
    <filter
       id="filter8114"
       inkscape:collect="always">
      <feGaussianBlur
         id="feGaussianBlur8116"
         stdDeviation="1.0131579"
         inkscape:collect="always" />
    </filter>
    <linearGradient
       id="linearGradient8132"
       y2="198.83"
       xlink:href="#linearGradient8046"
       spreadMethod="repeat"
       gradientUnits="userSpaceOnUse"
       x2="61.276001"
       y1="195.46001"
       x1="60.895"
       inkscape:collect="always"
       gradientTransform="translate(312.52057,666.19515)" />
    <linearGradient
       id="linearGradient8140"
       y2="192.09"
       xlink:href="#linearGradient8046"
       spreadMethod="repeat"
       gradientUnits="userSpaceOnUse"
       x2="331.57999"
       y1="194.61"
       x1="331.57001"
       inkscape:collect="always"
       gradientTransform="translate(312.52057,666.19515)" />
    <filter
       id="filter8178"
       inkscape:collect="always">
      <feGaussianBlur
         id="feGaussianBlur8180"
         stdDeviation="3.6312357"
         inkscape:collect="always" />
    </filter>
    <linearGradient
       id="linearGradient8344"
       y2="94.901001"
       xlink:href="#linearGradient6117"
       gradientUnits="userSpaceOnUse"
       x2="-20.423"
       y1="267.44"
       x1="323.09"
       inkscape:collect="always"
       gradientTransform="translate(313.59197,663.33515)" />
    <mask
       id="mask8351"
       maskUnits="userSpaceOnUse">
      <path
         id="path8353"
         sodipodi:nodetypes="cccccccccc"
         style="fill:#ffffff"
         d="m 100,195 0,96.875 c 0.45119,4.0533 0.79854,3.649 3.2812,5 l 95.361,54.492 c 3.782,1.9859 7.7909,2.8376 12.51,0.13916 l 92.285,-52.405 c 6.3295,-3.5457 6.6848,-6.7851 6.5625,-10 l 0,-94.1 -105,50 -105,-50 z"
         inkscape:connector-curvature="0" />
    </mask>
    <mask
       id="mask8359"
       maskUnits="userSpaceOnUse">
      <path
         id="path8361"
         sodipodi:nodetypes="cccccccccc"
         transform="translate(0,652.36)"
         style="fill:#ffffff"
         d="m 100,195 0,96.875 c 0.45119,4.0533 0.79854,3.649 3.2812,5 l 95.361,54.492 c 3.782,1.9859 7.7909,2.8376 12.51,0.13916 l 92.285,-52.405 c 6.3295,-3.5457 6.6848,-6.7851 6.5625,-10 l 0,-94.1 -105,50 -105,-50 z"
         inkscape:connector-curvature="0" />
    </mask>
    <radialGradient
       id="radialGradient8393"
       xlink:href="#linearGradient7771"
       gradientUnits="userSpaceOnUse"
       cy="228"
       cx="202"
       gradientTransform="matrix(1.3239,0,0,1.3202,-65.437,-73.015)"
       r="175.33"
       inkscape:collect="always" />
    <radialGradient
       id="radialGradient8395"
       gradientUnits="userSpaceOnUse"
       cy="247.5"
       cx="202"
       r="97.5"
       inkscape:collect="always">
      <stop
         id="stop7720-0"
         style="stop-color:#ffffff"
         offset="0" />
      <stop
         id="stop7726-8"
         style="stop-color:#ffcf10"
         offset=".5" />
      <stop
         id="stop7722-5"
         style="stop-color:#ff8f07;stop-opacity:.023529"
         offset="1" />
    </radialGradient>
    <radialGradient
       id="radialGradient8399"
       xlink:href="#linearGradient7771"
       gradientUnits="userSpaceOnUse"
       cy="220"
       cx="257.5"
       gradientTransform="matrix(1.9368,0,0,1.4626,-241.23,-101.78)"
       r="55.132"
       inkscape:collect="always" />
    <linearGradient
       id="linearGradient8403"
       y2="276.16"
       gradientUnits="userSpaceOnUse"
       x2="320.73001"
       y1="276.16"
       x1="89.285004"
       inkscape:collect="always">
      <stop
         id="stop8190"
         style="stop-color:#000000;stop-opacity:.75285"
         offset="0" />
      <stop
         id="stop8192"
         style="stop-color:#ffffff"
         offset="1" />
    </linearGradient>
    <radialGradient
       id="radialGradient8405"
       xlink:href="#linearGradient6170"
       gradientUnits="userSpaceOnUse"
       cy="292.04999"
       cx="177.48"
       gradientTransform="matrix(1.7068,0,0,2.4826,-97.917,-422.2)"
       r="55"
       inkscape:collect="always" />
    <radialGradient
       id="radialGradient8412"
       xlink:href="#linearGradient14419"
       gradientUnits="userSpaceOnUse"
       cy="282.97"
       cx="303.73001"
       gradientTransform="matrix(2.6944,-1.6238,0.54787,0.9091,-669.67,518.92)"
       r="13.108"
       inkscape:collect="always" />
    <linearGradient
       id="linearGradient14425"
       y2="249.5"
       xlink:href="#linearGradient14419"
       gradientUnits="userSpaceOnUse"
       x2="210"
       y1="281.5"
       x1="223"
       inkscape:collect="always" />
    <filter
       id="filter14443"
       height="1.8480999"
       width="1.2302001"
       y="-0.42403999"
       x="-0.1151"
       inkscape:collect="always">
      <feGaussianBlur
         id="feGaussianBlur14445"
         stdDeviation="3.3570175"
         inkscape:collect="always" />
    </filter>
    <linearGradient
       id="linearGradient14455"
       y2="270"
       xlink:href="#linearGradient14419"
       gradientUnits="userSpaceOnUse"
       x2="247"
       y1="279.5"
       x1="209"
       inkscape:collect="always" />
    <mask
       id="mask14451"
       maskUnits="userSpaceOnUse">
      <path
         id="path14453"
         sodipodi:nodetypes="cccc"
         style="fill:url(#linearGradient14455);filter:url(#filter14443)"
         d="m 204,250 3,37 66,-19 -69,-18 z"
         inkscape:connector-curvature="0" />
    </mask>
    <linearGradient
       id="linearGradient14459"
       y2="246"
       xlink:href="#linearGradient8144"
       gradientUnits="userSpaceOnUse"
       x2="244"
       y1="284"
       x1="212.5"
       inkscape:collect="always" />
    <filter
       id="filter14465"
       height="1.4775"
       width="1.2503"
       y="-0.23874"
       x="-0.12514"
       inkscape:collect="always">
      <feGaussianBlur
         id="feGaussianBlur14467"
         stdDeviation="3.2328947"
         inkscape:collect="always" />
    </filter>
    <linearGradient
       id="linearGradient16177"
       y2="266.13"
       xlink:href="#linearGradient8046"
       gradientUnits="userSpaceOnUse"
       x2="359.59"
       y1="266.13"
       x1="254.46001"
       inkscape:collect="always"
       gradientTransform="matrix(-1,0.0047561,0,1,727.18197,667.07515)" />
    <radialGradient
       inkscape:collect="always"
       xlink:href="#linearGradient14419"
       id="radialGradient4270"
       gradientUnits="userSpaceOnUse"
       gradientTransform="matrix(2.6944,-1.6238,0.54787,0.9091,-669.67,518.92)"
       cx="303.73001"
       cy="282.97"
       r="13.108" />
    <radialGradient
       inkscape:collect="always"
       xlink:href="#linearGradient6170"
       id="radialGradient4272"
       gradientUnits="userSpaceOnUse"
       gradientTransform="matrix(1.9184,0,0,1.0049,-190.59,-2.7828)"
       cx="207.25999"
       cy="183.8"
       r="105" />
  </defs>
  <g
     id="layer1"
     inkscape:label="Layer 1"
     transform="translate(-336.49273,-675.48037)"
     inkscape:groupmode="layer">
    <path
       id="path6159"
       d="m 472.52057,811.19515 45,-10 -105,60 -37.429,4.3929 -1.5,-2.25 98.929,-52.14 z"
       sodipodi:nodetypes="cccccc"
       style="fill:url(#linearGradient8132)"
       inkscape:connector-curvature="0" />
    <path
       id="path6161"
       sodipodi:nodetypes="cccccc"
       style="fill:url(#linearGradient8140)"
       d="m 552.52057,810.81515 -35,-9.62 105,60 35,0 1.0714,-2.8571 -106.07,-47.52 z"
       inkscape:connector-curvature="0" />
    <path
       id="path6113"
       sodipodi:nodetypes="ccccccccccc"
       d="m 518.59197,798.33515 -45,10 -100,55 40,-5 0.70711,99.20396 104.29,-49.19999 104.03,48.60999 0.97,-98.60996 35,0 -105,-50.38 -35,-9.62 z"
       style="fill:url(#linearGradient6376)"
       inkscape:connector-curvature="0" />
    <path
       id="path8084"
       d="m 623.59197,858.33515 -105,-60"
       sodipodi:nodetypes="cc"
       style="fill:none;stroke:url(#radialGradient8092);stroke-width:4;filter:url(#filter8114)"
       inkscape:connector-curvature="0" />
    <path
       id="path8078"
       sodipodi:nodetypes="ccccccc"
       style="fill:url(#radialGradient8080)"
       d="m 553.59197,807.95515 -35,-9.62 0.42071,45.98 80.36,27.378 24.22,-13.36 35,0 -105,-50.375 z"
       inkscape:connector-curvature="0" />
    <path
       id="path8062"
       sodipodi:nodetypes="cc"
       style="fill:url(#radialGradient8064);stroke:url(#radialGradient8072);stroke-width:4;filter:url(#filter8074)"
       d="m 413.59197,858.33515 105,-60"
       inkscape:connector-curvature="0" />
    <path
       id="path8054"
       d="m 373.59197,863.33515 40,-5 30.834,11.796 67.917,-36.465 6.25,-35.34 -45,10 -100,55 z"
       sodipodi:nodetypes="ccccccc"
       style="fill:url(#radialGradient8056)"
       inkscape:connector-curvature="0" />
    <g
       id="g8389"
       transform="matrix(0.6337278,0,0,1.0494759,394.38175,-40.355898)">
      <path
         id="path7769"
         sodipodi:nodetypes="ccccccccccccccccccccccccccccccccccccccccccccccccccccccccccccccccc"
         style="fill:url(#radialGradient8393)"
         transform="translate(0,657.31)"
         d="m 284.01,87.475 -65.18,113.82 82.34,-117.89 -80.32,119.28 103.24,-126.72 -101.34,128.25 98.15,-102.33 -96.37,104.01 107.31,-95.72 -105.66,97.53 141.27,-108.33 -139.78,110.27 142.73,-91.43 -113.1,75.8 122.25,-63.45 -149.35,83.27 161.82,-69.71 -160.8,71.93 159.58,-57.22 -187.58,72.84 -190.4,-78.47 160.45,61.73 -150.58,-73.41 139.66,64.86 -133.09,-81 125.87,71.13 -138.2,-103 143.16,102.42 L 26.68,82.765 178.63,206.785 34.4,63.505 180.34,205.035 86.718,95.895 l 82.742,91.27 -89.836,-117.48 104.53,132.28 -107.46,-162.6 109.53,161.3 -96.336,-175.17 87.896,152.82 -58.66,-141.72 71.51,161.96 -52.46,-149.17 54.78,148.38 -33.27,-135.31 35.64,134.7 -31.54,-171.52 33.95,171.09 -14.12,-171.52 15.14,140.17 -0.86,-122.58 4.72,153.65 9.58,-143.48 -7.13,143.62 24.91,-168.47 -18.25,146.17 38,-147.34 -39.85,170.49 50.19,-156.5 -47.84,157.2 52.93,-133.7 -50.65,134.58 85.76,-172.33 -71.53,150.05 55.28,-89.265 z"
         inkscape:connector-curvature="0" />
      <circle
         id="path7716-1"
         style="fill:url(#radialGradient8395)"
         transform="translate(6,631.86)"
         cx="202"
         cy="247.5"
         r="97.5" />
    </g>
    <path
       id="path5587"
       sodipodi:nodetypes="cccccccccc"
       d="m 413.59197,858.33515 0,96.87496 c 0.45119,4.0533 0.79854,3.649 3.2812,5 l 95.361,54.49199 c 3.782,1.9859 7.7909,2.8376 12.51,0.1392 l 92.285,-52.40499 c 6.3295,-3.5457 6.6848,-6.7851 6.5625,-9.99998 l 0,-94.10002 -105,50.00001 -105,-50.00001 z"
       style="fill:url(#radialGradient6197)"
       inkscape:connector-curvature="0" />
    <path
       id="path14457"
       style="fill:url(#linearGradient14459);filter:url(#filter14465)"
       d="M 236.5,237.5 211,286.5 273,268 236.5,237.5 Z"
       sodipodi:nodetypes="cccc"
       mask="url(#mask14451)"
       transform="matrix(-1,0,0,-1,727.59197,1194.8751)"
       inkscape:connector-curvature="0" />
    <g
       id="g8407"
       transform="translate(289.22097,-92.844848)">
      <path
         id="path8367"
         sodipodi:nodetypes="cccccccc"
         style="opacity:0.20284998;fill:#ffffff"
         transform="translate(62,734.36)"
         d="m 304,261.34 c 6.9351,14.997 15.638,21.145 10.964,35.08 l -14.622,7.1492 -0.37163,0.6492 15.757,-7.4516 c 4.6459,-18.236 -6.502,-23.837 -10.253,-35.355 l -0.0992,-1.6967 -1.375,1.625 z"
         inkscape:connector-curvature="0" />
      <path
         id="path8363"
         d="m 290.62,266.71 c 10.685,12.997 16.888,25.77 8.8388,37.83 l 16.263,-7.7782 c 4.6459,-18.236 -6.502,-23.837 -10.253,-35.355 l -14.849,5.3033 z"
         sodipodi:nodetypes="ccccc"
         style="opacity:0.20284998;fill:#ffffff"
         transform="translate(62,734.36)"
         inkscape:connector-curvature="0" />
      <path
         id="path8369"
         sodipodi:nodetypes="ccccc"
         style="fill:url(#radialGradient8412)"
         transform="translate(62,734.36)"
         d="m 290.62,266.71 c 10.685,12.997 16.888,25.77 8.8388,37.83 l 16.263,-7.7782 c 4.6459,-18.236 -6.502,-23.837 -10.253,-35.355 l -14.849,5.3033 z"
         inkscape:connector-curvature="0" />
    </g>
    <g
       id="g7269"
       mask="url(#mask8359)"
       transform="translate(313.59197,10.975149)">
      <g
         id="g7259">
        <path
           id="path6163"
           d="m 203.57,351.29 1.0714,9.4286 105.36,-65.34 -101.54,50.72 -3.82,-33.87 6.65,-18.05 -4.86,-16.41 -1.43,-32.77 -0.71429,32.857 3.2143,17.5 -6.7857,16.429 2.8571,39.5 z"
           sodipodi:nodetypes="cccccccccccc"
           style="fill:url(#radialGradient8405);filter:url(#filter7300)"
           transform="translate(0,652.36)"
           inkscape:connector-curvature="0" />
      </g>
    </g>
    <path
       id="path14417"
       style="fill:url(#linearGradient14425);filter:url(#filter14443)"
       d="m 204,250 3,37 66,-19 -69,-18 z"
       sodipodi:nodetypes="cccc"
       mask="url(#mask14451)"
       transform="translate(313.59197,673.33515)"
       inkscape:connector-curvature="0" />
    <path
       id="path8156"
       style="color:#000000;text-indent:0;text-transform:none;block-progression:tb;fill:url(#linearGradient8403);filter:url(#filter8178)"
       d="m 98,195 0,96.875 0,0.125 0,0.0937 c 0.23265,2.09 0.39766,3.3726 1.3125,4.5312 0.90752,1.1494 1.847,1.3943 2.9688,2 0.009,0.005 0.0222,-0.005 0.0312,0 l 101.69,58.13 1,0.5625 1,-0.5625 98.406,-55.906 c 0.0146,-0.008 0.0167,-0.0231 0.0312,-0.0312 3.3512,-1.8844 5.3787,-3.8201 6.4688,-5.9062 1.0825,-2.0717 1.1551,-4.117 1.0938,-5.8125 -7e-4,-0.0192 7.3e-4,-0.0434 0,-0.0625 l 0,-94.03 -4,0 0,94.094 0,0.0312 0,0.0625 c 0.0574,1.5084 0.01,2.6603 -0.625,3.875 -0.63468,1.2147 -1.9541,2.6275 -4.9062,4.2812 l 0,0.0312 -0.0312,0 -97.44,58.81 -100.72,-61.07 -0.0312,0 c -1.3493,-0.73422 -1.8202,-0.97849 -1.8125,-0.96875 0.008,0.01 -0.21896,-0.53672 -0.4375,-2.5 l 0,-96.65 -4,0 z"
       sodipodi:nodetypes="ccccsscccccsssccccccsccccccsccc"
       mask="url(#mask8351)"
       transform="translate(313.59197,663.33515)"
       inkscape:connector-curvature="0" />
    <g
       id="g8015"
       style="opacity:0.70107003;fill:#000000"
       transform="matrix(0.13052,0.074768,0,0.19911,533.39197,806.56515)">
      <path
         id="path7969"
         d="m -375,260 c -33.137,0 -60,26.863 -60,60 0,-8.2843 6.7157,-15 15,-15 8.2843,0 15,6.7157 15,15 0,-8.2843 6.7157,-15 15,-15 3.8234,0 7.2883,1.4575 9.9375,3.8125 l 0,65.938 0.0625,0 c 0,8.2843 -6.7157,15 -15,15 -8.2843,0 -15,-6.7157 -15,-15 l -10,0 c 0,13.807 11.193,25 25,25 13.807,0 25,-11.193 25,-25 l 0,-65.875 c 2.6571,-2.3901 6.1448,-3.875 10,-3.875 8.2843,0 15,6.7157 15,15 0,-8.2843 6.7157,-15 15,-15 8.2843,0 15,6.7157 15,15 0,-33.137 -26.863,-60 -60,-60 z"
         style="fill:#000000"
         transform="translate(0,652.36)"
         inkscape:connector-curvature="0" />
      <rect
         id="rect7991"
         style="fill:#000000"
         transform="matrix(1,0,0,0.66667,5,785.7)"
         height="15"
         width="95"
         y="385"
         x="-310" />
      <path
         id="rect7993"
         d="m -285,260 -20,40 15,0 0,80 10,0 0,-80 15,0 -20,-40 z"
         style="fill:#000000"
         transform="translate(0,652.36)"
         inkscape:connector-curvature="0" />
      <path
         id="path7999"
         style="fill:#000000"
         d="m -285,260 -20,40 15,0 0,80 10,0 0,-80 15,0 -20,-40 z"
         transform="translate(55,652.36)"
         inkscape:connector-curvature="0" />
      <path
         id="rect8001"
         d="m -740,260 0,16.625 7.22,-16.62 -7.22,0 z m 18.125,0 -13,30 41.469,0 6.5938,-15.125 -4.0312,-14.875 -31.031,0 z m 52.469,0 -2.9375,6.7188 15.812,23.281 2.625,0 2.4062,-30 -17.906,0 z m 27.938,0 -2.4688,30 18.062,0 -6.75,-30 -8.8438,0 z m 19.094,0 6.75,30 11.375,0 8.1875,-30 -26.312,0 z m 36.625,0 -3.5625,13.094 6.7812,-11 -0.125,-2.0938 -3.0938,0 z m 16.219,0 -0.625,1.0312 c 0.25722,-0.31309 0.56571,-0.69021 0.84375,-1.0312 l -0.21875,0 z m 13.094,0 c -0.28333,0.34348 -0.52746,0.65421 -0.8125,1 -4.2338,5.1361 -9.6977,11.955 -14.281,17.562 l 0.1875,3.5 25.625,-22.062 -10.719,0 z m 26.031,0 -34.844,30 48.375,0 8.25,-20.969 c -0.10518,-2.848 -0.18448,-5.9693 -0.28125,-9.0312 l -21.5,0 z m 36.094,0 -4.25,10.781 c 0.22309,6.1866 0.42437,12.655 0.625,19.219 l 37.938,0 0,-30 -34.312,0 z m -180.59,20.688 2.5,9.3125 3.8125,0 -6.3125,-9.3125 z m 31.875,29.312 14.469,21.344 4.5,-3.875 c 1.6916,-2.1038 3.4801,-4.3556 5.1562,-6.4375 l -2.47,-11.02 -21.656,0 z m 54.531,0 -14.219,12.25 -3.0938,11.375 1.4375,6.375 26.406,0 -1.75,-30 -8.7812,0 z m 18.812,0 1.7812,30 31.312,0 11.812,-30 -44.906,0 z m 55.688,0 -11.812,30 19.125,0 c -0.20096,-10.186 -0.44144,-20.224 -0.6875,-30 l -6.625,0 z m 16.625,0 c 0.25215,9.7769 0.48554,19.73 0.6875,30 l 36.688,0 0,-30 -37.375,0 z m -149.19,12.562 -1.4062,17.438 9.375,0 2.4375,-2.0938 -10.406,-15.344 z m 29.344,14.938 -1.5312,2.5 0.84375,0 0.6875,-2.5 z m -202.77,32.5 0,30 26.531,0 13,-30 -39.53,0 z m 50.438,0 -13,30 41.188,0 13.094,-30 -41.281,0 z m 52.219,0 -13.094,30 9.25,0 8.25,-30 -4.4062,0 z m 14.75,0 -8.25,30 2.5625,0 34.844,-30 -29.156,0 z m 65.375,0 -9.4062,15.312 3.9688,14.688 8.375,0 8.2188,-30 -11.156,0 z m 21.469,0 -8.1875,30 22.812,0 -3.5,-15.531 -9.8125,-14.469 -1.3125,0 z m 18.125,0 2.3438,10.438 13.25,19.562 7.5938,0 -1.7812,-30 -21.406,0 z m 31.469,0 1.7812,30 4.1562,0 11.812,-30 -17.75,0 z m 28.5,0 -11.812,30 43.688,0 c -0.11226,-9.7187 -0.25558,-19.688 -0.40625,-30 l -31.469,0 z m 41.469,0 c 0.14683,10.098 0.26259,20.106 0.375,30 l 35.812,0 0,-30 -36.188,0 z m -164.38,2.0625 -32.44,27.94 10.938,0 c 4.6546,-5.8647 9.4119,-11.861 14.406,-18.125 2.3686,-2.9707 4.6312,-5.7511 7,-8.7188 l 0.0937,-1.0938 z m -1.5312,18.906 c -2.4664,3.0946 -4.778,6.0034 -7.1875,9.0312 l 1.875,0 5.25,-8.5312 0.0625,-0.5 z"
         style="fill:#000000"
         transform="translate(0,652.36)"
         inkscape:connector-curvature="0" />
    </g>
    <path
       id="path6157"
       sodipodi:nodetypes="ccccc"
       style="fill:#726038"
       d="m 472.52057,966.19511 45,-54.99999 -105,-49.99997 -45,44.99997 105,59.99999 z"
       inkscape:connector-curvature="0" />
    <path
       id="path6330"
       style="fill:url(#radialGradient4272);filter:url(#filter7233)"
       d="m 205,135 -105,60 102.53,-51.523 2.8902,37.503 3.1428,13.006 -4.6859,16.794 1.13,34.22 0.61738,-33.368 6.4258,-15.943 -1.4029,-12.155 -1.1504,-36.651 100.51,48.12 -105,-60 z"
       sodipodi:nodetypes="ccccccccccccc"
       mask="url(#mask7947)"
       transform="translate(313.59197,663.33515)"
       inkscape:connector-curvature="0" />
    <g
       id="g57523"
       transform="translate(225.05097,-54.660848)">
      <path
         id="path57525"
         d="m 304,261.34 c 6.9351,14.997 15.638,21.145 10.964,35.08 l -14.622,7.1492 -0.37163,0.6492 15.757,-7.4516 c 4.6459,-18.236 -6.502,-23.837 -10.253,-35.355 l -0.0992,-1.6967 -1.375,1.625 z"
         sodipodi:nodetypes="cccccccc"
         style="opacity:0.20284998;fill:#ffffff"
         transform="translate(62,734.36)"
         inkscape:connector-curvature="0" />
      <path
         id="path57527"
         sodipodi:nodetypes="ccccc"
         style="opacity:0.20284998;fill:#ffffff"
         transform="translate(62,734.36)"
         d="m 290.62,266.71 c 10.685,12.997 16.888,25.77 8.8388,37.83 l 16.263,-7.7782 c 4.6459,-18.236 -6.502,-23.837 -10.253,-35.355 l -14.849,5.3033 z"
         inkscape:connector-curvature="0" />
      <path
         id="path57529"
         d="m 290.62,266.71 c 10.685,12.997 16.888,25.77 8.8388,37.83 l 16.263,-7.7782 c 4.6459,-18.236 -6.502,-23.837 -10.253,-35.355 l -14.849,5.3033 z"
         sodipodi:nodetypes="ccccc"
         style="fill:url(#radialGradient4270)"
         transform="translate(62,734.36)"
         inkscape:connector-curvature="0" />
    </g>
    <path
       id="path6155"
       d="m 567.52057,960.81511 -50,-49.61999 1.07,-2.86 103.93,-47.13997 50,39.99997 -105,59.61499 z"
       sodipodi:nodetypes="cccccc"
       style="fill:#a38a50"
       inkscape:connector-curvature="0" />
    <path
       id="path6109"
       d="m 473.59197,963.33511 45,-54.99999 -105,-49.99997 -46.25,45.24997 106.25,59.74999 z"
       sodipodi:nodetypes="ccccc"
       style="fill:url(#radialGradient7330)"
       inkscape:connector-curvature="0" />
    <path
       id="path7338"
       style="fill:#decca2"
       d="m 569.13197,959.89511 c -0.88844,0.5045 -1.3114,0.1224 -0.94224,-0.8548 l 0.53729,-0.3037 c -0.24589,0.6508 0.0354,0.9059 0.62712,0.5705 0.59045,-0.3348 1.2667,-1.1311 1.5116,-1.7793 0.3673,-0.9723 1.3785,-2.1619 2.2561,-2.6557 0.87475,-0.49228 1.2859,-0.1066 0.92084,0.86 -0.24338,0.6444 0.0307,0.8996 0.61099,0.5706 0.5791,-0.3283 1.2441,-1.1143 1.4865,-1.7562 0.36358,-0.96278 1.3581,-2.13708 2.2188,-2.62138 0.85802,-0.4828 1.2586,-0.097 0.89725,0.8601 -0.24094,0.6382 0.0261,0.8934 0.59536,0.5707 0.56806,-0.322 1.2222,-1.098 1.4622,-1.7337 0.35994,-0.9535 1.3382,-2.1128 2.1826,-2.5879 0.84175,-0.4737 1.2322,-0.088 0.87437,0.86 -0.23853,0.632 0.0217,0.8873 0.58022,0.5706 0.55734,-0.3159 1.2009,-1.0821 1.4385,-1.7117 0.35637,-0.9444 1.3188,-2.089 2.1473,-2.5552 0.82596,-0.4647 1.2065,-0.079 0.85221,0.8598 -0.23618,0.626 0.0175,0.8812 0.56552,0.5705 0.54692,-0.3101 1.1802,-1.0665 1.4154,-1.6902 0.35286,-0.9355 1.2999,-2.0657 2.113,-2.5232 0.81059,-0.4561 1.1815,-0.071 0.83071,0.8593 -0.23388,0.6202 0.0134,0.8752 0.55128,0.5703 0.53679,-0.3043 1.16,-1.0514 1.393,-1.6692 0.34943,-0.9267 1.2815,-2.0429 2.0796,-2.492 0.79565,-0.4477 1.1572,-0.063 0.80985,0.8588 -0.23161,0.6144 0.009,0.8693 0.53746,0.57 0.52694,-0.2988 1.1404,-1.0367 1.3711,-1.6487 0.34606,-0.9181 1.2635,-2.0206 2.047,-2.4615 0.78112,-0.4396 1.1337,-0.055 0.78962,0.8581 -0.22939,0.6087 0.006,0.8635 0.52406,0.5696 0.51735,-0.2933 1.1212,-1.0223 1.3498,-1.6287 0.34275,-0.9096 1.2459,-1.9988 2.0152,-2.43171 0.76698,-0.4316 1.1108,-0.047 0.76998,0.85741 -0.22721,0.6031 0.002,0.8576 0.51105,0.569 0.50803,-0.288 1.1026,-1.0082 1.329,-1.60911 0.33951,-0.9013 1.2288,-1.9774 1.9843,-2.4026 0.75322,-0.4238 1.0885,-0.04 0.75092,0.8565 -0.22507,0.5977 -0.002,0.852 0.49842,0.5685 0.49896,-0.2828 1.0845,-0.9945 1.3087,-1.59 0.33633,-0.8931 1.2121,-1.9565 1.9542,-2.3741 0.73984,-0.4163 1.0669,-0.033 0.73242,0.8556 -0.22298,0.5922 -0.005,0.8463 0.48616,0.5678 0.49012,-0.2778 1.0668,-0.9811 1.289,-1.5712 0.33322,-0.8851 1.1958,-1.936 1.9248,-2.3462 0.7268,-0.4089 1.0458,-0.026 0.71446,0.8545 -0.22093,0.587 -0.008,0.8407 0.47424,0.5672 0.48153,-0.273 1.0496,-0.9681 1.2698,-1.5529 0.33014,-0.8773 1.1799,-1.916 1.8961,-2.319 0.71411,-0.4019 1.0253,-0.019 0.697,0.8532 -0.2189,0.5818 -0.0114,0.8352 0.46268,0.5664 0.47315,-0.2682 1.0329,-0.9552 1.251,-1.535 0.32714,-0.8695 1.1643,-1.8963 1.8681,-2.2923 0.70174,-0.3948 1.0054,-0.013 0.68004,0.852 -0.21692,0.5767 -0.0145,0.8298 0.45144,0.5656 0.46499,-0.2636 1.0165,-0.9428 1.2326,-1.5175 0.32418,-0.8619 1.1491,-1.877 1.8408,-2.2662 0.6897,-0.3881 0.986,-0.01 0.66356,0.8507 -0.21497,0.5717 -0.0174,0.8243 0.44052,0.5647 0.45704,-0.2591 1.0006,-0.9306 1.2148,-1.5003 0.32128,-0.8545 1.1343,-1.8581 1.8142,-2.2407 0.67796,-0.3815 0.96711,-9e-4 0.64754,0.8492 -0.21306,0.5668 -0.0202,0.819 0.42989,0.5638 0.4493,-0.2547 0.98501,-0.9187 1.1973,-1.4836 0.31844,-0.8471 1.1198,-1.8396 1.7882,-2.2157 0.66653,-0.375 0.94872,0 0.63197,0.8478 -0.21117,0.5619 -0.023,0.8137 0.41957,0.5628 0.44175,-0.2505 0.96984,-0.9071 1.1803,-1.4671 0.31564,-0.84 1.1056,-1.8214 1.7628,-2.1912 0.65537,-0.3688 0.9308,0.01 0.61682,0.8461 -0.20932,0.5572 -0.0257,0.8085 0.40953,0.5618 0.43438,-0.2463 0.95504,-0.8957 1.1636,-1.451 0.31289,-0.8329 1.0917,-1.8036 1.738,-2.1672 0.6445,-0.3626 0.91335,0.016 0.6021,0.8445 -0.20752,0.5525 -0.0282,0.8034 0.39976,0.5607 0.4272,-0.2421 0.94058,-0.8845 1.1474,-1.4352 0.31018,-0.8259 1.0782,-1.7861 1.7138,-2.1438 0.63389,-0.3566 0.89635,0.021 0.58777,0.8429 -0.20573,0.5478 -0.0307,0.7982 0.39027,0.5596 0.42019,-0.2382 0.92647,-0.8737 1.1315,-1.4198 0.30752,-0.8191 1.0649,-1.7689 1.6901,-2.1207 0.62355,-0.3509 0.87978,0.026 0.57383,0.841 -0.20397,0.5434 -0.0331,0.7933 0.38102,0.5585 0.41336,-0.2343 0.91271,-0.8631 1.116,-1.4046 0.30491,-0.8123 1.0519,-1.7521 1.667,-2.0982 0.61345,-0.3452 0.86362,0.031 0.56026,0.8392 -0.20225,0.539 -0.0354,0.7883 0.37202,0.5573 0.40669,-0.2305 0.89926,-0.8526 1.1008,-1.3898 0.30234,-0.8057 1.0392,-1.7356 1.6444,-2.0761 0.60359,-0.3396 0.84787,0.036 0.54705,0.8374 -0.20056,0.5345 -0.0376,0.7834 0.36326,0.5561 0.40019,-0.2269 0.88612,-0.8425 1.086,-1.3752 0.29981,-0.7992 1.0268,-1.7193 1.6224,-2.0544 0.59398,-0.3343 0.83251,0.04 0.53419,0.8355 -0.19888,0.5302 -0.0398,0.7784 0.35474,0.5548 0.39383,-0.2233 0.87329,-0.8325 1.0715,-1.361 0.29733,-0.7928 1.0146,-1.7034 1.6008,-2.0332 0.58459,-0.329 0.81753,0.045 0.52167,0.8335 l -0.35234,0.1991 c 0.19741,-0.5264 0.0417,-0.7752 -0.34833,-0.5553 -0.39074,0.2202 -0.86856,0.827 -1.0666,1.3552 -0.2971,0.7921 -1.0157,1.7056 -1.6064,2.041 -0.5923,0.3362 -0.83154,-0.036 -0.53295,-0.8318 0.19904,-0.5306 0.0396,-0.78 -0.3567,-0.5567 -0.39702,0.2238 -0.88129,0.837 -1.081,1.3693 -0.29958,0.7986 -1.0279,1.7216 -1.6281,2.0624 -0.60187,0.3417 -0.84686,-0.031 -0.54577,-0.8336 0.20072,-0.535 0.0375,-0.7849 -0.36528,-0.558 -0.40346,0.2274 -0.89432,0.8471 -1.0957,1.3838 -0.3021,0.8051 -1.0403,1.7378 -1.6504,2.0842 -0.61166,0.3473 -0.86256,-0.026 -0.55892,-0.8354 0.20241,-0.5393 0.0352,-0.7898 -0.3741,-0.5592 -0.41006,0.2311 -0.90765,0.8574 -1.1108,1.3985 -0.30467,0.8117 -1.0531,1.7544 -1.6731,2.1064 -0.6217,0.353 -0.87867,-0.022 -0.57244,-0.8372 0.20414,-0.5438 0.0329,-0.7948 -0.38316,-0.5603 -0.41682,0.2349 -0.92131,0.8679 -1.1262,1.4135 -0.30728,0.8184 -1.0661,1.7713 -1.6963,2.1291 -0.63199,0.3588 -0.89519,-0.016 -0.58633,-0.8389 0.2059,-0.5484 0.0305,-0.7999 -0.39247,-0.5616 -0.42374,0.2388 -0.9353,0.8787 -1.1419,1.4288 -0.30992,0.8253 -1.0793,1.7885 -1.7201,2.1523 -0.64254,0.3648 -0.91215,-0.011 -0.60061,-0.8405 0.20769,-0.553 0.028,-0.805 -0.40204,-0.5627 -0.43083,0.2428 -0.94962,0.8897 -1.158,1.4445 -0.31263,0.8322 -1.0929,1.806 -1.7445,2.176 -0.65335,0.371 -0.92955,-0.01 -0.61528,-0.8421 0.20951,-0.5577 0.0254,-0.8102 -0.41187,-0.5638 -0.43812,0.2469 -0.9643,0.901 -1.1745,1.4604 -0.31538,0.8393 -1.1068,1.8239 -1.7694,2.2001 -0.66443,0.3773 -0.94741,-1e-4 -0.63036,-0.8437 0.21135,-0.5623 0.0228,-0.8154 -0.42199,-0.5647 -0.44558,0.2511 -0.97934,0.9124 -1.1914,1.4768 -0.31818,0.8465 -1.121,1.8421 -1.7949,2.2248 -0.67581,0.3837 -0.96575,0.01 -0.64588,-0.8452 0.21324,-0.5672 0.02,-0.8207 -0.43239,-0.5657 -0.45323,0.2554 -0.99476,0.9242 -1.2088,1.4934 -0.32101,0.8538 -1.1356,1.8607 -1.8211,2.2499 -0.68748,0.3903 -0.98458,0.012 -0.66183,-0.8465 0.21516,-0.5722 0.0171,-0.8261 -0.44308,-0.5667 -0.4611,0.2598 -1.0106,0.9362 -1.2265,1.5104 -0.32391,0.8612 -1.1504,1.8797 -1.8479,2.2756 -0.69946,0.3971 -1.0039,0.018 -0.67825,-0.8478 0.21711,-0.5772 0.0142,-0.8315 -0.45409,-0.5676 -0.46916,0.2644 -1.0268,0.9486 -1.2447,1.5278 -0.32687,0.8688 -1.1657,1.899 -1.8753,2.3019 -0.71174,0.4041 -1.0238,0.024 -0.69514,-0.849 0.2191,-0.5823 0.0111,-0.837 -0.46541,-0.5685 -0.47743,0.2691 -1.0434,0.9613 -1.2633,1.5456 -0.32987,0.8766 -1.1812,1.9187 -1.9035,2.3288 -0.72436,0.4113 -1.0442,0.031 -0.71252,-0.8501 0.22112,-0.5875 0.008,-0.8425 -0.47707,-0.5692 -0.48593,0.2738 -1.0605,0.9741 -1.2824,1.5637 -0.33292,0.8844 -1.1972,1.9388 -1.9323,2.3562 -0.73731,0.4186 -1.0652,0.038 -0.73042,-0.8512 0.22318,-0.5927 0.005,-0.8481 -0.48907,-0.5699 -0.49465,0.2788 -1.078,0.9874 -1.302,1.5823 -0.33604,0.8924 -1.2135,1.9594 -1.9619,2.3843 -0.75061,0.4262 -1.0868,0.045 -0.74884,-0.8521 0.22528,-0.5981 10e-4,-0.8538 -0.50143,-0.5706 -0.50361,0.2839 -1.0959,1.0009 -1.322,1.6013 -0.33922,0.90061 -1.2303,1.98041 -1.9922,2.41301 -0.76428,0.434 -1.109,0.053 -0.76781,-0.8529 0.22742,-0.6036 -0.002,-0.8595 -0.51416,-0.5711 -0.51282,0.289 -1.1144,1.0148 -1.3426,1.6207 -0.34245,0.9088 -1.2474,2.0018 -2.0234,2.4424 -0.77832,0.4419 -1.1318,0.06 -0.78736,-0.8536 0.2296,-0.6092 -0.006,-0.8654 -0.52727,-0.5717 -0.52229,0.2944 -1.1333,1.0291 -1.3638,1.6405 -0.34575,0.9173 -1.265,2.0237 -2.0553,2.4724 -0.79276,0.4501 -1.1553,0.068 -0.80751,-0.8542 0.23182,-0.6149 -0.01,-0.8712 -0.54078,-0.572 -0.53202,0.2998 -1.1528,1.0436 -1.3855,1.6608 -0.3491,0.9258 -1.283,2.046 -2.0881,2.5031 -0.8076,0.4585 -1.1794,0.076 -0.82827,-0.8547 0.23409,-0.6207 -0.0138,-0.8772 -0.55471,-0.5724 -0.54202,0.3054 -1.1727,1.0586 -1.4078,1.6816 -0.35254,0.9346 -1.3014,2.0688 -2.1218,2.5346 -0.82285,0.4672 -1.2043,0.085 -0.84967,-0.855 0.23641,-0.6267 -0.0179,-0.8833 -0.56907,-0.5727 -0.55231,0.3113 -1.1933,1.0739 -1.4306,1.7029 -0.35603,0.9436 -1.3204,2.0922 -2.1563,2.5668 -0.83856,0.4761 -1.2299,0.094 -0.87175,-0.8552 0.23876,-0.6326 -0.0222,-0.8893 -0.58388,-0.5728 -0.56289,0.3172 -1.2144,1.0897 -1.4541,1.7247 -0.3596,0.9527 -1.3398,2.116 -2.1918,2.5997 -0.8547,0.4853 -1.2563,0.103 -0.89451,-0.8552 0.24117,-0.6388 -0.0266,-0.8955 -0.59915,-0.5729 -0.57378,0.3234 -1.2361,1.1058 -1.4782,1.7471 -0.36323,0.96198 -1.3598,2.14038 -2.2283,2.63348 -0.87133,0.4947 -1.2834,0.1125 -0.918,-0.8551 0.24362,-0.645 -0.0312,-0.9018 -0.61491,-0.5728 -0.58499,0.3297 -1.2584,1.1224 -1.503,1.7699 -0.36695,0.9714 -1.3802,2.1653 -2.2658,2.6681"
       inkscape:connector-curvature="0" />
    <path
       id="path6107"
       sodipodi:nodetypes="ccccc"
       style="fill:url(#linearGradient8344)"
       d="m 568.59197,957.95511 -50,-49.61999 105,-49.99997 50,39.99997 -105,59.61499 z"
       inkscape:connector-curvature="0" />
    <path
       id="path7803"
       d="m 568.59197,957.95511 -50,-49.61999 105,-49.99997 50,39.99997 -105,59.61499 z"
       sodipodi:nodetypes="ccccc"
       style="fill:url(#radialGradient7807)"
       inkscape:connector-curvature="0" />
    <path
       id="path7809"
       sodipodi:nodetypes="ccccc"
       style="fill:url(#radialGradient7811)"
       d="m 473.59197,963.33511 45,-54.99999 -105,-49.99997 -45,44.99997 105,59.99999 z"
       inkscape:connector-curvature="0" />
    <path
       id="path7813"
       style="fill:none;stroke:url(#radialGradient8399);stroke-width:3;stroke-linecap:round;filter:url(#filter7863)"
       d="M 205,245 310,195 205,245 Z"
       sodipodi:nodetypes="ccc"
       mask="url(#mask7935)"
       transform="translate(313.59197,663.33515)"
       inkscape:connector-curvature="0" />
    <path
       id="path7867"
       style="fill:none;stroke:url(#radialGradient7875);stroke-width:4;filter:url(#filter7881)"
       d="M 205,245 100,195 205,245 Z"
       sodipodi:nodetypes="ccc"
       mask="url(#mask7941)"
       transform="translate(313.59197,663.33515)"
       inkscape:connector-curvature="0" />
    <path
       id="path7917"
       d="m 471.64197,964.85051 c 0.88844,0.5002 1.3114,0.1161 0.94224,-0.8593 l -0.53729,-0.3011 c 0.24589,0.6496 -0.0354,0.906 -0.62712,0.5734 -0.59045,-0.3319 -1.2667,-1.1251 -1.5116,-1.7721 -0.3673,-0.9706 -1.3785,-2.1554 -2.2561,-2.645 -0.87475,-0.4881 -1.2859,-0.1004 -0.92084,0.8644 0.24338,0.6433 -0.0307,0.8998 -0.61099,0.5736 -0.5791,-0.3256 -1.2441,-1.1084 -1.4865,-1.7492 -0.36358,-0.9611 -1.3581,-2.1306 -2.2188,-2.6108 -0.85802,-0.4787 -1.2586,-0.091 -0.89725,0.8643 0.24094,0.6371 -0.0261,0.8936 -0.59536,0.5736 -0.56806,-0.3194 -1.2222,-1.0922 -1.4622,-1.7268 -0.35994,-0.9518 -1.3382,-2.1064 -2.1826,-2.57748 -0.84175,-0.4697 -1.2322,-0.082 -0.87437,0.86408 0.23853,0.6309 -0.0217,0.8874 -0.58022,0.5734 -0.55734,-0.3133 -1.2009,-1.07628 -1.4385,-1.70478 -0.35637,-0.9427 -1.3188,-2.0827 -2.1473,-2.545 -0.82596,-0.4608 -1.2065,-0.074 -0.85221,0.8638 0.23618,0.6249 -0.0175,0.8813 -0.56552,0.5732 -0.54692,-0.3075 -1.1802,-1.0609 -1.4154,-1.6835 -0.35286,-0.9338 -1.2999,-2.0595 -2.113,-2.5131 -0.81059,-0.4523 -1.1815,-0.065 -0.83071,0.8633 0.23388,0.619 -0.0134,0.8752 -0.55128,0.5729 -0.53679,-0.3018 -1.16,-1.0459 -1.393,-1.6626 -0.34943,-0.925 -1.2815,-2.0368 -2.0796,-2.4821 -0.79565,-0.444 -1.1572,-0.057 -0.80985,0.8626 0.23161,0.6133 -0.009,0.8694 -0.53746,0.5725 -0.52694,-0.2962 -1.1404,-1.0312 -1.3711,-1.6421 -0.34606,-0.9164 -1.2635,-2.0146 -2.047,-2.4518 -0.78112,-0.4358 -1.1337,-0.049 -0.78962,0.8619 0.22939,0.6076 -0.006,0.8635 -0.52406,0.5721 -0.51735,-0.2909 -1.1212,-1.017 -1.3498,-1.6223 -0.34275,-0.908 -1.2459,-1.9929 -2.0152,-2.4221 -0.76698,-0.428 -1.1108,-0.042 -0.76998,0.861 0.22721,0.602 -0.002,0.8577 -0.51105,0.5715 -0.50803,-0.2856 -1.1026,-1.0029 -1.329,-1.6028 -0.33951,-0.8996 -1.2288,-1.9715 -1.9843,-2.3931 -0.75322,-0.4203 -1.0885,-0.035 -0.75092,0.8601 0.22507,0.5965 0.002,0.8519 -0.49842,0.5708 -0.49896,-0.2805 -1.0845,-0.9893 -1.3087,-1.5837 -0.33633,-0.8916 -1.2121,-1.9508 -1.9542,-2.3649 -0.73984,-0.41271 -1.0669,-0.028 -0.73242,0.8591 0.22298,0.5912 0.005,0.8462 -0.48616,0.5701 -0.49012,-0.2755 -1.0668,-0.976 -1.289,-1.56501 -0.33322,-0.8836 -1.1958,-1.9303 -1.9248,-2.3371 -0.7268,-0.4055 -1.0458,-0.021 -0.71446,0.8579 0.22093,0.5859 0.008,0.8406 -0.47424,0.5694 -0.48153,-0.2707 -1.0496,-0.9631 -1.2698,-1.5469 -0.33014,-0.8757 -1.1799,-1.9103 -1.8961,-2.3099 -0.71411,-0.3985 -1.0253,-0.014 -0.697,0.8565 0.2189,0.5808 0.0114,0.8352 -0.46268,0.5687 -0.47315,-0.266 -1.0329,-0.9504 -1.251,-1.5291 -0.32714,-0.868 -1.1643,-1.8908 -1.8681,-2.2834 -0.70174,-0.3915 -1.0054,-0.01 -0.68004,0.8552 0.21692,0.5757 0.0145,0.8297 -0.45144,0.5678 -0.46499,-0.2614 -1.0165,-0.938 -1.2326,-1.5117 -0.32418,-0.8604 -1.1491,-1.8715 -1.8408,-2.2574 -0.6897,-0.3848 -0.986,0 -0.66356,0.8538 0.21497,0.5706 0.0174,0.8242 -0.44052,0.5668 -0.45704,-0.2569 -1.0006,-0.9259 -1.2148,-1.4945 -0.32128,-0.853 -1.1343,-1.8527 -1.8142,-2.2321 -0.67796,-0.3783 -0.96711,0 -0.64754,0.8523 0.21306,0.5658 0.0202,0.8189 -0.42989,0.5659 -0.4493,-0.2526 -0.98501,-0.9141 -1.1973,-1.478 -0.31844,-0.8456 -1.1198,-1.8342 -1.7882,-2.2071 -0.66653,-0.3719 -0.94872,0.01 -0.63197,0.8507 0.21117,0.5609 0.023,0.8136 -0.41957,0.5648 -0.44175,-0.2483 -0.96984,-0.9025 -1.1803,-1.4615 -0.31564,-0.8385 -1.1056,-1.8161 -1.7628,-2.1828 -0.65537,-0.3657 -0.9308,0.015 -0.61682,0.8491 0.20932,0.5561 0.0257,0.8084 -0.40953,0.5637 -0.43438,-0.2442 -0.95504,-0.8912 -1.1636,-1.4455 -0.31289,-0.8313 -1.0917,-1.7984 -1.738,-2.1589 -0.6445,-0.3596 -0.91335,0.02 -0.6021,0.8474 0.20752,0.5515 0.0282,0.8032 -0.39976,0.5626 -0.4272,-0.2401 -0.94058,-0.8801 -1.1474,-1.4297 -0.31018,-0.8245 -1.0782,-1.781 -1.7138,-2.1357 -0.63389,-0.3536 -0.89635,0.025 -0.58777,0.8456 0.20573,0.5469 0.0307,0.7982 -0.39027,0.5615 -0.42019,-0.2362 -0.92647,-0.8693 -1.1315,-1.4144 -0.30752,-0.8176 -1.0649,-1.7638 -1.6901,-2.1127 -0.62355,-0.3479 -0.87978,0.03 -0.57383,0.8438 0.20397,0.5424 0.0331,0.7931 -0.38102,0.5603 -0.41336,-0.2324 -0.91271,-0.8587 -1.116,-1.3993 -0.30491,-0.8109 -1.0519,-1.7471 -1.667,-2.0903 -0.61345,-0.3422 -0.86362,0.035 -0.56026,0.8419 0.20225,0.538 0.0354,0.7881 -0.37202,0.5591 -0.40669,-0.2286 -0.89926,-0.8484 -1.1008,-1.3846 -0.30234,-0.8042 -1.0392,-1.7306 -1.6444,-2.0683 -0.60359,-0.3367 -0.84787,0.04 -0.54705,0.84 0.20056,0.5336 0.0376,0.7832 -0.36326,0.5578 -0.40019,-0.2249 -0.88612,-0.8382 -1.086,-1.37 -0.29981,-0.7978 -1.0268,-1.7144 -1.6224,-2.0467 -0.59398,-0.3314 -0.83251,0.044 -0.53419,0.838 0.19888,0.5293 0.0398,0.7783 -0.35474,0.5565 -0.39383,-0.2214 -0.87329,-0.8283 -1.0715,-1.3559 -0.29733,-0.7913 -1.0146,-1.6986 -1.6008,-2.0256 -0.58459,-0.3261 -0.81753,0.049 -0.52167,0.836 l 0.35234,0.1975 c -0.19741,-0.5254 -0.0417,-0.775 0.34833,-0.557 0.39074,0.2183 0.86856,0.8229 1.0666,1.3501 0.2971,0.7908 1.0157,1.7008 1.6064,2.0334 0.5923,0.3334 0.83154,-0.04 0.53295,-0.8343 -0.19904,-0.5297 -0.0396,-0.7799 0.3567,-0.5584 0.39702,0.2218 0.88129,0.8328 1.081,1.3641 0.29958,0.7972 1.0279,1.7168 1.6281,2.0547 0.60187,0.3389 0.84686,-0.035 0.54577,-0.8362 -0.20072,-0.534 -0.0375,-0.7847 0.36528,-0.5597 0.40346,0.2255 0.89432,0.8428 1.0957,1.3786 0.3021,0.8036 1.0403,1.7328 1.6504,2.0763 0.61166,0.3444 0.86256,-0.03 0.55892,-0.8381 -0.20241,-0.5383 -0.0352,-0.7896 0.3741,-0.5609 0.41006,0.2291 0.90765,0.853 1.1108,1.3932 0.30467,0.8103 1.0531,1.7494 1.6731,2.0985 0.6217,0.35 0.87867,-0.026 0.57244,-0.84 -0.20414,-0.5428 -0.0329,-0.7947 0.38316,-0.5622 0.41682,0.2329 0.92131,0.8635 1.1262,1.4082 0.30728,0.8169 1.0661,1.7662 1.6963,2.121 0.63199,0.3558 0.89519,-0.021 0.58633,-0.8417 -0.2059,-0.5473 -0.0305,-0.7997 0.39247,-0.5634 0.42374,0.2368 0.9353,0.8742 1.1419,1.4234 0.30992,0.8238 1.0793,1.7834 1.7201,2.1441 0.64254,0.3618 0.91215,-0.015 0.60061,-0.8434 -0.20769,-0.5519 -0.028,-0.8049 0.40204,-0.5646 0.43083,0.2408 0.94962,0.8852 1.158,1.439 0.31263,0.8307 1.0929,1.8008 1.7445,2.1677 0.65335,0.3679 0.92955,-0.01 0.61528,-0.8451 -0.20951,-0.5566 -0.0254,-0.81 0.41187,-0.5657 0.43812,0.2449 0.9643,0.8964 1.1745,1.4549 0.31538,0.8378 1.1068,1.8186 1.7694,2.1916 0.66443,0.3741 0.94741,0 0.63036,-0.8466 -0.21135,-0.5614 -0.0228,-0.8153 0.42199,-0.5668 0.44558,0.249 0.97934,0.9078 1.1914,1.4711 0.31818,0.845 1.121,1.8368 1.7949,2.2163 0.67581,0.3805 0.96575,0 0.64588,-0.8482 -0.21324,-0.5662 -0.02,-0.8206 0.43239,-0.5679 0.45323,0.2533 0.99476,0.9195 1.2088,1.4877 0.32101,0.8523 1.1356,1.8553 1.8211,2.2412 0.68748,0.3871 0.98458,0.01 0.66183,-0.8496 -0.21516,-0.5711 -0.0171,-0.826 0.44308,-0.5688 0.4611,0.2576 1.0106,0.9314 1.2265,1.5045 0.32391,0.8598 1.1504,1.8743 1.8479,2.2669 0.69946,0.3938 1.0039,0.013 0.67825,-0.8511 -0.21711,-0.5761 -0.0142,-0.8314 0.45409,-0.5697 0.46916,0.2621 1.0268,0.9437 1.2447,1.5219 0.32687,0.8672 1.1657,1.8934 1.8753,2.2929 0.71174,0.4008 1.0238,0.02 0.69514,-0.8523 -0.2191,-0.5812 -0.0111,-0.8369 0.46541,-0.5706 0.47743,0.2668 1.0434,0.9562 1.2633,1.5396 0.32987,0.8749 1.1812,1.9131 1.9035,2.3197 0.72436,0.4078 1.0442,0.026 0.71252,-0.8535 -0.22112,-0.5864 -0.008,-0.8425 0.47707,-0.5715 0.48593,0.2715 1.0605,0.9691 1.2824,1.5576 0.33292,0.88281 1.1972,1.93311 1.9323,2.34701 0.73731,0.4151 1.0652,0.033 0.73042,-0.8546 -0.22318,-0.5917 -0.005,-0.8481 0.48907,-0.5723 0.49465,0.2765 1.078,0.9823 1.302,1.5762 0.33604,0.8907 1.2135,1.9536 1.9619,2.3749 0.75061,0.4226 1.0868,0.04 0.74884,-0.8556 -0.22528,-0.5971 -0.001,-0.8538 0.50143,-0.573 0.50361,0.2814 1.0959,0.9957 1.322,1.595 0.33922,0.899 1.2303,1.9746 1.9922,2.4036 0.76428,0.4303 1.109,0.047 0.76781,-0.8566 -0.22742,-0.6026 0.002,-0.8596 0.51416,-0.5736 0.51282,0.2866 1.1144,1.0095 1.3426,1.6143 0.34245,0.9072 1.2474,1.9959 2.0234,2.4328 0.77832,0.4382 1.1318,0.055 0.78736,-0.8574 -0.2296,-0.6081 0.006,-0.8654 0.52727,-0.5741 0.52229,0.2918 1.1333,1.0237 1.3638,1.634 0.34575,0.9156 1.265,2.0177 2.0553,2.4626 0.79276,0.4464 1.1553,0.063 0.80751,-0.858 -0.23182,-0.6138 0.01,-0.8713 0.54078,-0.5747 0.53202,0.2973 1.1528,1.0381 1.3855,1.6542 0.3491,0.9243 1.283,2.0399 2.0881,2.4932 0.8076,0.4547 1.1794,0.071 0.82827,-0.8586 -0.23409,-0.6196 0.0138,-0.8773 0.55471,-0.575 0.54202,0.3028 1.1727,1.053 1.4078,1.6749 0.35254,0.9329 1.3014,2.0626 2.1218,2.5245 0.82285,0.4632 1.2043,0.079 0.84967,-0.8591 -0.23641,-0.6255 0.0179,-0.8833 0.56907,-0.5753 0.55231,0.3086 1.1933,1.0682 1.4306,1.6961 0.35603,0.9418 1.3204,2.08588 2.1563,2.55648 0.83856,0.4721 1.2299,0.088 0.87175,-0.8593 -0.23876,-0.6316 0.0222,-0.88948 0.58388,-0.5756 0.56289,0.3145 1.2144,1.0839 1.4541,1.7178 0.3596,0.9509 1.3398,2.1096 2.1918,2.5892 0.8547,0.4813 1.2563,0.097 0.89451,-0.8595 -0.24117,-0.6376 0.0266,-0.8956 0.59915,-0.5757 0.57378,0.3207 1.2361,1.1 1.4782,1.7401 0.36323,0.9602 1.3598,2.1339 2.2283,2.6229 0.87133,0.4906 1.2834,0.1064 0.918,-0.8595 -0.24362,-0.6438 0.0312,-0.9019 0.61491,-0.5757 0.58499,0.3269 1.2584,1.1164 1.503,1.7628 0.36695,0.9696 1.3802,2.1587 2.2658,2.6573"
       style="fill:url(#linearGradient16177)"
       inkscape:connector-curvature="0" />
    <path
       id="path7931"
       sodipodi:nodetypes="cccccc"
       d="m 518.13197,909.60512 50.058,49.43799 0.53729,-0.3037 -50.373,-49.72299 -0.22217,0.5881"
       style="fill:#ceb476"
       inkscape:connector-curvature="0" />
    <path
       id="path7237"
       style="fill:url(#radialGradient6348);filter:url(#filter7251)"
       sodipodi:nodetypes="ccccccccccccc"
       d="m 518.59197,798.33515 -105,60 102.53,-51.523 2.8902,37.503 3.1428,13.006 -4.6859,16.794 1.13,34.21997 0.61738,-33.36797 6.4258,-15.943 -1.4029,-12.155 -1.1504,-36.651 100.51,48.12 -105,-60 z"
       inkscape:connector-curvature="0" />
  </g>
  <metadata
     id="metadata142">
    <rdf:RDF>
      <cc:Work>
        <dc:format>image/svg+xml</dc:format>
        <dc:type
           rdf:resource="http://purl.org/dc/dcmitype/StillImage" />
        <cc:license
           rdf:resource="http://creativecommons.org/publicdomain/zero/1.0/" />
        <dc:publisher>
          <cc:Agent
             rdf:about="http://openclipart.org/">
            <dc:title>Openclipart</dc:title>
          </cc:Agent>
        </dc:publisher>
        <dc:title>Mysterious cardboard box</dc:title>
        <dc:date>2010-05-05T19:20:35</dc:date>
        <dc:description />
        <dc:source>https://openclipart.org/detail/58813/mysterious-cardboard-box-by-ceba</dc:source>
        <dc:creator>
          <cc:Agent>
            <dc:title>ceba</dc:title>
          </cc:Agent>
        </dc:creator>
        <dc:subject>
          <rdf:Bag>
            <rdf:li>box</rdf:li>
            <rdf:li>cardboard box</rdf:li>
            <rdf:li>magic</rdf:li>
          </rdf:Bag>
        </dc:subject>
      </cc:Work>
      <cc:License
         rdf:about="http://creativecommons.org/publicdomain/zero/1.0/">
        <cc:permits
           rdf:resource="http://creativecommons.org/ns#Reproduction" />
        <cc:permits
           rdf:resource="http://creativecommons.org/ns#Distribution" />
        <cc:permits
           rdf:resource="http://creativecommons.org/ns#DerivativeWorks" />
      </cc:License>
    </rdf:RDF>
  </metadata>
</svg>
