<?xml version="1.0" encoding="UTF-8" standalone="no"?>
<!-- Created with Inkscape (http://www.inkscape.org/) -->

<svg
   xmlns:dc="http://purl.org/dc/elements/1.1/"
   xmlns:cc="http://creativecommons.org/ns#"
   xmlns:rdf="http://www.w3.org/1999/02/22-rdf-syntax-ns#"
   xmlns:svg="http://www.w3.org/2000/svg"
   xmlns="http://www.w3.org/2000/svg"
   xmlns:xlink="http://www.w3.org/1999/xlink"
   xmlns:sodipodi="http://sodipodi.sourceforge.net/DTD/sodipodi-0.dtd"
   xmlns:inkscape="http://www.inkscape.org/namespaces/inkscape"
   id="svg2"
   sodipodi:docname="wrench.svg"
   viewBox="0 0 803.60928 899.99998"
   version="1.1"
   inkscape:version="0.91 r13725"
   width="803.60931"
   height="900">
  <defs
     id="defs4">
    <linearGradient
       id="linearGradient3938">
      <stop
         id="stop3940"
         style="stop-color:#6b6b6b"
         offset="0" />
      <stop
         id="stop3958"
         style="stop-color:#6c6060"
         offset=".15428" />
      <stop
         id="stop3956"
         style="stop-color:#e9e6e6"
         offset=".30103" />
      <stop
         id="stop3954"
         style="stop-color:#b3b3b3"
         offset=".37954" />
      <stop
         id="stop3952"
         style="stop-color:#f6f3f3"
         offset=".51116" />
      <stop
         id="stop3950"
         style="stop-color:#e5e5e5"
         offset=".67901" />
      <stop
         id="stop3948"
         style="stop-color:#6b6262"
         offset=".83179" />
      <stop
         id="stop3942"
         style="stop-color:#b3b3b3"
         offset="1" />
    </linearGradient>
    <filter
       id="filter4024"
       inkscape:collect="always">
      <feGaussianBlur
         id="feGaussianBlur4026"
         stdDeviation="1.0764073"
         inkscape:collect="always" />
    </filter>
    <filter
       id="filter4108"
       inkscape:collect="always">
      <feGaussianBlur
         id="feGaussianBlur4110"
         stdDeviation="2.2792969"
         inkscape:collect="always" />
    </filter>
    <filter
       id="filter4120"
       inkscape:collect="always">
      <feGaussianBlur
         id="feGaussianBlur4122"
         stdDeviation="2.8087076"
         inkscape:collect="always" />
    </filter>
    <filter
       id="filter4163"
       inkscape:collect="always">
      <feGaussianBlur
         id="feGaussianBlur4165"
         stdDeviation="6.0079578"
         inkscape:collect="always" />
    </filter>
    <linearGradient
       id="linearGradient4198"
       y2="1636.7"
       gradientUnits="userSpaceOnUse"
       x2="851.60999"
       y1="2010.7"
       x1="751.22998"
       inkscape:collect="always">
      <stop
         id="stop4098"
         style="stop-color:#999999"
         offset="0" />
      <stop
         id="stop4100"
         style="stop-color:#999999;stop-opacity:0"
         offset="1" />
    </linearGradient>
    <radialGradient
       id="radialGradient4200"
       gradientUnits="userSpaceOnUse"
       cy="1961.2"
       cx="516.94"
       gradientTransform="matrix(1.419,-2.0589,0.51516,0.35506,-1206.9,2345.8)"
       r="144.42999"
       inkscape:collect="always">
      <stop
         id="stop4042"
         style="stop-color:#ffffff"
         offset="0" />
      <stop
         id="stop4044"
         style="stop-color:#ffffff;stop-opacity:0"
         offset="1" />
    </radialGradient>
    <linearGradient
       id="linearGradient4202"
       y2="1815.1"
       xlink:href="#linearGradient3938"
       gradientUnits="userSpaceOnUse"
       x2="523.59003"
       y1="2070.8"
       x1="806.34998"
       inkscape:collect="always" />
    <radialGradient
       id="radialGradient4204"
       gradientUnits="userSpaceOnUse"
       cy="1575"
       cx="832.40997"
       gradientTransform="matrix(1.9795,-0.90926,0.48658,1.0593,-1584.2,675.64)"
       r="67.318001"
       inkscape:collect="always">
      <stop
         id="stop3992"
         style="stop-color:#e6e6e6"
         offset="0" />
      <stop
         id="stop3994"
         style="stop-color:#e6e6e6;stop-opacity:0"
         offset="1" />
    </radialGradient>
    <linearGradient
       id="linearGradient4206"
       y2="1776.5"
       xlink:href="#linearGradient3938"
       gradientUnits="userSpaceOnUse"
       x2="846.85999"
       y1="1731.7"
       x1="772.90002"
       inkscape:collect="always" />
    <linearGradient
       id="linearGradient4208"
       y2="1654.5"
       xlink:href="#linearGradient3938"
       gradientUnits="userSpaceOnUse"
       x2="935.40002"
       y1="1544.5"
       x1="802.87"
       inkscape:collect="always" />
    <linearGradient
       id="linearGradient4210"
       y2="1959.4"
       gradientUnits="userSpaceOnUse"
       x2="593.79999"
       y1="2060.8999"
       x1="658.78003"
       inkscape:collect="always">
      <stop
         id="stop4062"
         style="stop-color:#cccccc"
         offset="0" />
      <stop
         id="stop4064"
         style="stop-color:#cccccc;stop-opacity:0"
         offset="1" />
    </linearGradient>
    <linearGradient
       id="linearGradient4212"
       y2="2052.8"
       gradientUnits="userSpaceOnUse"
       x2="732.92999"
       y1="2094.6001"
       x1="744.13"
       inkscape:collect="always">
      <stop
         id="stop4088"
         style="stop-color:#cccccc"
         offset="0" />
      <stop
         id="stop4090"
         style="stop-color:#cccccc;stop-opacity:0"
         offset="1" />
    </linearGradient>
    <linearGradient
       id="linearGradient4214"
       y2="1584.9"
       gradientUnits="userSpaceOnUse"
       x2="863.71997"
       y1="1597.4"
       x1="875.92999"
       inkscape:collect="always">
      <stop
         id="stop4171"
         style="stop-color:#b3b3b3"
         offset="0" />
      <stop
         id="stop4173"
         style="stop-color:#b3b3b3;stop-opacity:0"
         offset="1" />
    </linearGradient>
  </defs>
  <sodipodi:namedview
     id="base"
     bordercolor="#666666"
     inkscape:pageshadow="2"
     inkscape:window-y="-8"
     pagecolor="#ffffff"
     gridtolerance="10"
     inkscape:window-height="1137"
     inkscape:window-maximized="1"
     inkscape:zoom="0.40544937"
     inkscape:window-x="-8"
     showgrid="false"
     borderopacity="1.0"
     inkscape:current-layer="layer1"
     inkscape:cx="-522.71432"
     inkscape:cy="506.14532"
     showguides="true"
     inkscape:guide-bbox="true"
     inkscape:window-width="1920"
     inkscape:pageopacity="0.0"
     inkscape:document-units="px"
     fit-margin-top="0"
     fit-margin-left="0"
     fit-margin-right="0"
     fit-margin-bottom="0">
    <inkscape:grid
       id="grid3056"
       enabled="true"
       visible="true"
       snapvisiblegridlinesonly="true"
       type="xygrid"
       empspacing="5"
       originx="20.500764"
       originy="-29.027446" />
  </sodipodi:namedview>
  <g
     id="layer1"
     inkscape:label="Layer 1"
     inkscape:groupmode="layer"
     transform="translate(20.500765,-123.37255)">
    <g
       id="g4177"
       transform="matrix(1.563,0,0,1.563,-773.9472,-2295.34)">
      <path
         id="path4124"
         d="m 896.23,1576.7 c -0.29928,0.01 -0.60613,0.019 -0.90625,0.031 -5.5825,0.2229 -11.3,0.8588 -17.094,1.9688 -34.261,6.5641 -58.156,26.928 -56.219,46.812 0.002,0.021 -0.002,0.042 0,0.062 -0.42019,5.1468 -0.29368,11.854 2.625,16.625 4.1848,8.5177 8.9499,10.488 13.719,13.438 -0.28064,5.2684 -1.0828,10.116 -2.2188,14.719 l -148.73,213.9 c -10.183,9.1024 -21.428,17.056 -35.375,22.031 -3.8615,0.5665 -7.7542,1.2278 -11.625,1.9688 -41.979,8.0444 -76.947,25.21 -99.5,46.469 -21.811,20.563 -10.71,69.569 -4,92.969 4.2828,14.935 0.35089,10.211 13.156,21.438 1.4678,1.286 2.6662,1.4838 3.8438,1.2812 6.4176,3.8593 12.921,3.8031 20.75,4.4376 -0.24103,-1.2045 -0.49057,-2.401 -0.71875,-3.625 -1.7098,-9.1715 -2.9442,-18.961 -2.125,-30.031 7.6e-4,-0.01 -7.6e-4,-0.021 0,-0.031 0.16403,-2.2068 0.40944,-4.4653 0.75,-6.7812 10e-4,-0.01 -10e-4,-0.021 0,-0.031 1.0276,-6.9721 2.9135,-14.463 6,-22.625 0.003,-0.01 -0.003,-0.022 0,-0.031 0.34026,-0.8992 0.72386,-1.8031 1.0938,-2.7187 0.004,-0.01 -0.004,-0.022 0,-0.031 0.74771,-1.8498 1.532,-3.7054 2.4062,-5.625 0.99306,-1.4703 2.132,-2.9451 3.375,-4.4063 0.41283,-0.4857 0.84308,-0.9551 1.2812,-1.4374 0.005,-0.01 -0.005,-0.026 0,-0.031 0.44013,-0.484 0.9101,-0.9574 1.375,-1.4375 0.45766,-0.4726 0.89445,-0.9388 1.375,-1.4062 0.4884,-0.4755 0.98879,-0.9368 1.5,-1.4063 0.0107,-0.01 0.0206,-0.022 0.0312,-0.031 0.5007,-0.4593 1.0097,-0.9223 1.5312,-1.375 0.0111,-0.01 0.0202,-0.022 0.0312,-0.031 0.5114,-0.4433 1.0632,-0.8765 1.5938,-1.3125 0.0224,-0.018 0.0401,-0.044 0.0625,-0.062 0.53141,-0.4358 1.0754,-0.8536 1.625,-1.2812 0.0231,-0.018 0.0394,-0.045 0.0625,-0.063 0.53955,-0.4188 1.1001,-0.8398 1.6562,-1.25 12.358,-9.0683 28.706,-15.815 44.562,-15.812 l 84.094,16.719 c 0.0825,0.1575 0.17885,0.197 0.28125,0.25 0.0512,0.026 0.1083,0.056 0.15625,0.094 0.048,0.038 0.0858,0.083 0.125,0.1563 -6.1018,71.552 -41.906,70.974 -68.625,95.062 2.6357,-0.1711 5.2559,-0.3506 7.9062,-0.5625 7.9509,-0.6357 15.967,-1.5304 24.094,-3.0937 -10.442,2.0046 -20.707,2.982 -30.875,3.6562 l 6.5312,21.281 c 1.1519,4.2567 3.4914,4.8163 9.9375,2.8126 87.803,-21.458 122.06,-46.828 146.53,-105.12 2.1427,-15.376 -1.077,-17.591 -5.6562,-28.5 -0.10646,-1.0144 -0.2706,-2.0185 -0.4375,-3.0313 -0.11007,-0.6679 -0.20709,-1.333 -0.34375,-2 -0.27331,-1.3339 -0.61894,-2.6712 -1,-4 -4.5894,-16.003 -16.471,-29.534 -33.344,-39.844 -3.6632,-13.217 -7.4445,-26.421 -4.25,-40.781 l 102.36,-211.4 c 10.003,-7.4027 17.23,-14.391 34.094,-17.312 15.699,-2.7194 32.593,-13.343 39.125,-26.781 3.0983,-6.7561 3.2597,-9.1234 2.875,-12.719 1.0728,-4.1818 1.1064,-8.4401 -0.0937,-12.625 -2.7411,-9.5584 -11.338,-17.124 -23.312,-21.906 -2.4505,13.866 -2.3568,33.463 -12.312,41.563 -4.2408,3.4501 -6.0925,3.2112 -13.188,5.875 -3.7074,0.9092 -7.1268,1.5611 -10.312,1.9374 -1.5929,0.1882 -3.1452,0.3051 -4.625,0.3438 -7.3989,0.1935 -13.437,-1.5493 -18.875,-5.9062 -0.27947,-0.3268 -4.5016,-3.6662 -5.6562,-4.6876 -0.003,-0.1637 -0.0444,-0.45 -0.25,-0.8437 0.009,-0.023 0.0222,-0.04 0.0312,-0.062 0.11217,0.019 0.20731,0.035 0.15625,-0.031 0.4047,-1.1367 0.45448,-1.2367 0.59375,-1.5938 0.20698,-0.3911 0.38363,-0.7671 0.59375,-1.2188 0.17442,-0.3748 0.37716,-0.8117 0.5625,-1.3437 0.81794,-2.3475 1.9125,-4.5902 3.25,-6.7813 5.5682,-8.5079 15.938,-17.466 26.344,-25.031 0.0207,-0.3745 0.0363,-0.7002 0.0312,-1.0312 -0.004,-0.3208 -0.0321,-0.612 -0.0625,-0.9063 -0.0916,-0.8779 -0.31353,-1.6803 -0.6875,-2.5937 -0.003,-0.01 0.003,-0.023 0,-0.031 -0.1236,-0.3001 -0.27856,-0.605 -0.4375,-0.9375 -0.003,-0.01 0.003,-0.024 0,-0.031 -0.32871,-0.6856 -0.72478,-1.4302 -1.2188,-2.3438 z m 15.438,0.625 c 1.236,0.1439 2.4519,0.3118 3.6562,0.5 -1.201,-0.1875 -2.4242,-0.3565 -3.6562,-0.5 z m 3.875,0.5312 c 1.1391,0.1811 2.2668,0.4054 3.375,0.625 -1.1132,-0.2206 -2.2308,-0.4435 -3.375,-0.625 z m 9.9688,27.813 c -0.33364,0.7309 -0.6724,1.4428 -1.0312,2.1562 0.35689,-0.7097 0.69933,-1.4292 1.0312,-2.1562 z m -1.4062,2.9062 c -0.41932,0.8056 -0.85823,1.5938 -1.3125,2.375 0.44901,-0.773 0.89773,-1.5781 1.3125,-2.375 z m -1.4375,2.5625 c -0.41664,0.7099 -0.86531,1.4053 -1.3125,2.0937 0.44854,-0.6909 0.89477,-1.3812 1.3125,-2.0937 z m -3.5938,5.3437 c -0.28718,0.3752 -0.57663,0.7578 -0.875,1.125 0.298,-0.3666 0.58817,-0.7505 0.875,-1.125 z m -200.62,288.97 c 0.21667,0.028 0.44,0.034 0.65625,0.062 0.34724,0.046 0.68513,0.1089 1.0312,0.1563 -0.5603,-0.076 -1.1243,-0.1465 -1.6875,-0.2188 z m 3.1875,0.4375 c 0.89625,0.1292 1.7991,0.2351 2.6875,0.375 0.59021,0.093 1.1633,0.2149 1.75,0.3125 -1.4618,-0.2422 -2.9542,-0.4744 -4.4375,-0.6875 z m 5.5625,0.875 c 1.1193,0.1926 2.2379,0.3842 3.3438,0.5937 -1.1084,-0.2093 -2.2218,-0.4014 -3.3438,-0.5937 z m -43.219,151.22 c -2.8296,3.3659 -5.7822,6.5637 -8.6562,9.625 2.9591,-3.1158 5.8473,-6.2692 8.6562,-9.625 z m 55.75,7.5938 c -1.929,0.8267 -3.8906,1.623 -5.875,2.4062 -0.41847,0.1652 -0.82912,0.3369 -1.25,0.5 -0.84458,0.3275 -1.7083,0.6494 -2.5625,0.9688 1.2814,-0.4787 2.5528,-0.9721 3.8125,-1.4688 1.9792,-0.7803 3.9508,-1.5829 5.875,-2.4062 z m -18.5,7 c -1.9404,0.6379 -3.8919,1.2477 -5.875,1.8438 -2.0355,0.6129 -4.0718,1.2107 -6.125,1.7812 -2.0532,0.5705 -4.1322,1.1004 -6.2188,1.625 4.1732,-1.0495 8.2727,-2.212 12.344,-3.4375 1.9832,-0.596 3.9344,-1.1748 5.875,-1.8125 z"
         style="opacity:0.78279;fill:#000000;filter:url(#filter4163)"
         inkscape:connector-curvature="0" />
      <path
         id="path4094"
         sodipodi:nodetypes="ccscccccccc"
         style="fill:#333333"
         inkscape:connector-curvature="0"
         d="m 948.47,1606 c 0.60373,5.0792 1.0731,6.9003 -2.6149,14.942 -6.532,13.438 -23.446,24.032 -39.145,26.751 -16.864,2.9214 -24.069,9.9265 -34.073,17.329 l -102.36,211.44 c -3.9411,17.716 2.7645,33.658 6.7241,50.057 l -45.574,-35.862 123.27,-238.33 22.414,-18.678 58.275,-26.149 z" />
      <path
         id="path3916"
         d="m 948.47,1606 c 0.60373,5.0792 1.0731,6.9003 -2.6149,14.942 -6.532,13.438 -23.446,24.032 -39.145,26.751 -16.864,2.9214 -24.069,9.9265 -34.073,17.329 l -102.36,211.44 c -3.9411,17.716 2.7645,33.658 6.7241,50.057 l -45.574,-35.862 123.27,-238.33 22.414,-18.678 58.275,-26.149 z"
         sodipodi:nodetypes="ccscccccccc"
         style="fill:url(#linearGradient4198)"
         inkscape:connector-curvature="0" />
      <path
         id="path3918"
         d="m 815.16,1615.3 c -0.57632,5.283 -0.72243,12.943 2.5094,18.226 5.0458,10.27 10.908,11.03 16.641,15.453 l 0.92451,-17.038 z"
         sodipodi:nodetypes="ccccc"
         style="fill:#333333"
         inkscape:connector-curvature="0" />
      <path
         id="path3914"
         style="fill:#cccccc"
         inkscape:connector-curvature="0"
         d="m 904.69,1568.6 c 1.2321,0.1435 2.4552,0.3125 3.6562,0.5 -1.2044,-0.1882 -2.4202,-0.3561 -3.6562,-0.5 z m 3.875,0.5312 c 1.1442,0.1815 2.2618,0.4044 3.375,0.625 -1.1082,-0.2197 -2.2359,-0.444 -3.375,-0.625 z m -77.156,70 c 0.43155,8.4184 -0.5764,15.719 -2.25,22.5 l -148.71,214 c -10.183,9.1024 -21.428,17.056 -35.375,22.031 11.585,-1.6991 23.049,-2.5934 34.125,-2.7187 l 0,-0.031 c 30.314,-0.3553 58.296,4.9211 80.531,14.656 -4.2756,-14.975 -4.3204,-31.235 -1.6875,-48.312 l 111.09,-200.1 c 6.667,-6.1291 14.117,-10.798 21.75,-14.125 -23.088,3.9471 -45.124,0.6048 -59.469,-7.8126 z" />
      <path
         id="path3998"
         sodipodi:nodetypes="cccsccccccccccscc"
         style="fill:#4d4d4d"
         inkscape:connector-curvature="0"
         d="m 679.2,1894.9 c -14.768,0.167 -30.271,1.7348 -45.754,4.6989 -41.979,8.0444 -76.963,25.226 -99.516,46.484 -21.811,20.563 -10.714,69.567 -4.0035,92.966 4.2828,14.935 0.34911,10.186 13.154,21.413 4.494,3.9373 6.6091,-2.1865 12.582,0.5155 3.9904,1.8083 7.6559,3.7158 12.011,5.2236 -3.8565,-19.27 -6.5531,-40.839 7.4351,-71.552 10.593,-15.683 36.177,-31.601 60.339,-31.598 l 83.788,16.974 c 0.16507,0.315 0.4137,0.2229 0.5706,0.5158 -6.1018,71.552 -41.913,70.967 -68.632,95.055 10.543,-0.6844 21.193,-1.5706 32.028,-3.6551 8.8023,-1.6875 17.023,-3.8164 25.165,-6.2674 68.255,-20.513 111.71,-66.115 99.516,-108.64 -11.09,-38.671 -64.691,-62.902 -128.68,-62.152 z" />
      <path
         id="path4038"
         d="m 679.2,1894.9 c -14.768,0.167 -30.271,1.7348 -45.754,4.6989 -41.979,8.0444 -76.963,25.226 -99.516,46.484 -21.811,20.563 -10.714,69.567 -4.0035,92.966 4.2828,14.935 0.34911,10.186 13.154,21.413 4.494,3.9373 6.6091,-2.1865 12.582,0.5155 3.9904,1.8083 7.6559,3.7158 12.011,5.2236 -3.8565,-19.27 -6.5531,-40.839 7.4351,-71.552 10.593,-15.683 36.177,-31.601 60.339,-31.598 l 83.788,16.974 c 0.16507,0.315 0.4137,0.2229 0.5706,0.5158 -6.1018,71.552 -41.913,70.967 -68.632,95.055 10.543,-0.6844 21.193,-1.5706 32.028,-3.6551 8.8023,-1.6875 17.023,-3.8164 25.165,-6.2674 68.255,-20.513 111.71,-66.115 99.516,-108.64 -11.09,-38.671 -64.691,-62.902 -128.68,-62.152 z"
         sodipodi:nodetypes="cccsccccccccccscc"
         style="fill:url(#radialGradient4200)"
         inkscape:connector-curvature="0" />
      <path
         id="path4034"
         style="fill:url(#linearGradient4202)"
         sodipodi:type="inkscape:offset"
         d="m 679.60156,1898.6113 a 3.7025957,3.7025957 0 0 1 -0.37304,0.027 c -14.53695,0.1644 -29.82545,1.6997 -45.09571,4.623 -41.39503,7.9329 -75.76969,24.8952 -97.65625,45.5254 -9.60907,9.0593 -12.40006,25.2876 -11.53711,42.543 0.86295,17.2554 5.24112,35.1496 8.55664,46.7109 2.19565,7.6568 2.48954,10.3002 3.06446,11.3418 0.57491,1.0417 2.51959,2.6747 8.97461,8.334 0.65067,0.5693 0.62775,0.4407 0.6582,0.4414 0.0306,7e-4 0.42637,-0.065 1.29687,-0.4004 1.74102,-0.6698 5.59732,-1.9828 9.69141,-0.1308 a 3.7025957,3.7025957 0 0 1 0.002,0 c 2.02219,0.9163 3.89514,1.6582 5.7793,2.5136 -3.06516,-18.0277 -3.98015,-39.0116 8.76172,-66.9883 a 3.7025957,3.7025957 0 0 1 0.30078,-0.5371 c 11.48906,-17.0106 37.62102,-33.2591 63.41211,-33.2558 a 3.7025957,3.7025957 0 0 1 0.73633,0.074 l 83.8125,17 a 3.7025957,3.7025957 0 0 1 2.21484,1.4004 c 0.32138,0.2908 0.66779,0.5936 0.875,0.9805 a 3.7025957,3.7025957 0 0 1 0.42578,2.0625 c -3.10305,36.3877 -14.09623,55.3747 -27.78711,67.7617 -10.39715,9.4069 -21.89125,15.0774 -32.40625,22.2793 6.37112,-0.5981 12.75156,-1.3474 19.17969,-2.584 a 3.7025957,3.7025957 0 0 1 0.002,-0 c 8.65293,-1.6589 16.76648,-3.7656 24.81836,-6.1894 33.61089,-10.1014 60.99235,-26.391 78.26953,-45.0313 17.27719,-18.6403 24.41746,-39.2239 18.73829,-59.0273 -5.16587,-18.0132 -20.38921,-33.0435 -42.53125,-43.5371 -22.05417,-10.452 -50.81208,-16.2548 -82.1836,-15.9356 z"
         inkscape:original="M 679.1875 1894.9062 L 679.1875 1894.9375 C 664.41977 1895.1045 648.92081 1896.6609 633.4375 1899.625 C 591.45872 1907.6694 556.49045 1924.8355 533.9375 1946.0938 C 512.12686 1966.6566 523.2271 2015.6631 529.9375 2039.0625 C 534.22032 2053.9978 530.28839 2049.2732 543.09375 2060.5 C 547.58776 2064.4373 549.68294 2058.298 555.65625 2061 C 559.6466 2062.8083 563.33285 2064.7109 567.6875 2066.2188 C 563.83096 2046.9488 561.10551 2025.4007 575.09375 1994.6875 C 585.68636 1979.0041 611.2755 1963.0594 635.4375 1963.0625 L 719.25 1980.0625 C 719.41507 1980.3775 719.6556 1980.2696 719.8125 1980.5625 C 713.71073 2052.1147 677.9061 2051.5363 651.1875 2075.625 C 661.73015 2074.9406 672.35229 2074.0532 683.1875 2071.9688 C 691.98978 2070.2812 700.23296 2068.1385 708.375 2065.6875 C 776.63018 2045.1741 820.06893 1999.5829 807.875 1957.0625 C 796.78481 1918.3915 743.18111 1894.1558 679.1875 1894.9062 z "
         inkscape:radius="-3.7022254" />
      <path
         id="path3878"
         d="m 632.3,1946.1 c -24.162,0 -52.892,10.956 -63.484,26.636 -30.051,39.84 -23.547,63.235 -22.305,88.789 6.5584,4.1266 13.158,4.0516 21.161,4.7002 -3.8565,-19.271 -6.5531,-40.841 7.4351,-71.552 10.593,-15.686 35.891,-31.342 60.053,-31.338 l 84.074,16.713 c 0.16507,0.3148 0.4137,0.2198 0.5706,0.5156 -0.53254,-18.689 2.5706,-3.4801 -6.8632,-21.936 z m 47.47,99.756 c -3.6313,4.6241 -7.6066,8.9752 -11.439,13.057 3.9455,-4.1544 7.7651,-8.3841 11.439,-13.057 z"
         sodipodi:nodetypes="ccccccccccccc"
         style="fill:#333333"
         inkscape:connector-curvature="0" />
      <path
         id="path3884"
         d="m 809.6,1966 c 4.2061,39.806 -37.774,80.684 -101.23,99.757 -8.142,2.4516 -16.363,4.578 -25.165,6.2674 -10.453,2.0086 -20.706,2.9805 -30.884,3.6553 l 6.5245,21.279 c 1.1519,4.2567 3.5009,4.8203 9.947,2.8165 87.803,-21.458 122.06,-46.834 146.53,-105.13 2.1518,-15.442 -1.1089,-17.614 -5.7193,-28.645 z"
         sodipodi:nodetypes="cccccccc"
         style="fill:#333333"
         inkscape:connector-curvature="0" />
      <path
         id="path3986"
         style="fill:#999999"
         inkscape:connector-curvature="0"
         d="m 889.25,1568 c -5.8661,0.1867 -11.896,0.8445 -18.002,2.0142 -36.678,7.0272 -61.5,29.86 -55.438,51 6.0626,21.14 40.697,32.59 77.375,25.562 36.678,-7.0272 61.5,-29.86 55.438,-51 -2.7411,-9.5584 -11.338,-17.124 -23.312,-21.906 -2.4505,13.866 -2.3656,33.475 -12.321,41.575 -4.2408,3.4502 -6.0907,3.1873 -13.186,5.851 -14.829,3.6368 -25.116,3.358 -33.817,-3.6132 -0.31299,-0.3659 -5.7862,-4.6854 -6.0908,-5.0787 0.7573,-2.127 1.3796,-2.5796 2.1209,-4.7074 4.0686,-11.677 14.835,-21.048 29.617,-31.795 0.16012,-2.8994 -0.40892,-4.2474 -2.3848,-7.9019 z" />
      <path
         id="path3988"
         style="fill:url(#radialGradient4204);filter:url(#filter4024)"
         inkscape:connector-curvature="0"
         d="m 889.25,1568 c -5.8661,0.1867 -11.896,0.8445 -18.002,2.0142 -36.678,7.0272 -61.5,29.86 -55.438,51 6.0626,21.14 40.697,32.59 77.375,25.562 36.678,-7.0272 61.5,-29.86 55.438,-51 -2.7411,-9.5584 -11.338,-17.124 -23.312,-21.906 -2.4505,13.866 -2.3656,33.475 -12.321,41.575 -4.2408,3.4502 -6.0907,3.1873 -13.186,5.851 -14.829,3.6368 -25.116,3.358 -33.817,-3.6132 -0.31299,-0.3659 -5.7862,-4.6854 -6.0908,-5.0787 0.7573,-2.127 1.3796,-2.5796 2.1209,-4.7074 4.0686,-11.677 14.835,-21.048 29.617,-31.795 0.16012,-2.8994 -0.40892,-4.2474 -2.3848,-7.9019 z" />
      <path
         id="path4000"
         style="fill:#cccccc;filter:url(#filter4108)"
         inkscape:connector-curvature="0"
         d="m 904.69,1568.6 c 1.2321,0.1435 2.4552,0.3125 3.6562,0.5 -1.2044,-0.1882 -2.4202,-0.3561 -3.6562,-0.5 z m 3.875,0.5312 c 1.1442,0.1815 2.2618,0.4044 3.375,0.625 -1.1082,-0.2197 -2.2359,-0.444 -3.375,-0.625 z m -77.156,70 c 0.43155,8.4184 -0.5764,15.719 -2.25,22.5 l -148.71,214 c -10.183,9.1024 -21.428,17.056 -35.375,22.031 11.585,-1.6991 23.049,-2.5934 34.125,-2.7187 l 0,-0.031 c 30.314,-0.3553 58.296,4.9211 80.531,14.656 -4.2756,-14.975 -4.3204,-31.235 -1.6875,-48.312 l 111.09,-200.1 c 6.667,-6.1291 14.117,-10.798 21.75,-14.125 -23.088,3.9471 -45.124,0.6048 -59.469,-7.8126 z" />
      <path
         id="path4002"
         d="m 681.75,1888.8 c 21.861,0.262 42.731,-3.19 68.362,11.207 -3.6516,-12.106 -5.8953,-24.682 2.2414,-40.718 l 114.68,-199.11 c 0.95664,-2.5668 4.2998,-5.5314 8.2183,-8.5919 -15.218,0.4559 -29.214,-0.9876 -39.971,-7.4712 0.44035,7.4115 0.25187,14.474 -3.7356,19.425 l -134.48,201.72 c -7.6983,9.1413 -11.507,16.338 -15.316,23.534 z"
         sodipodi:nodetypes="ccccccccc"
         style="fill:url(#linearGradient4206);filter:url(#filter4120)"
         inkscape:connector-curvature="0" />
      <path
         id="path4018"
         style="fill:url(#linearGradient4208)"
         sodipodi:type="inkscape:offset"
         d="m 887.26367,1571.502 c -5.03778,0.2545 -10.17257,0.7966 -15.38281,1.7949 -17.81674,3.4135 -32.66681,10.698 -42.10547,19.3808 -9.43866,8.6829 -13.34477,18.3007 -10.73633,27.3965 2.6087,9.0967 11.68669,16.6739 25.03321,21.084 13.34651,4.4101 30.66786,5.5209 48.48437,2.1074 17.81674,-3.4135 32.66681,-10.698 42.10547,-19.3808 9.43866,-8.6829 13.34477,-18.3007 10.73633,-27.3965 -2.06038,-7.1847 -8.32092,-13.2963 -17.39844,-17.7774 -0.80094,5.8038 -1.47297,12.2136 -2.73828,18.5469 -1.58701,7.9435 -4.13486,15.6751 -10.14453,20.5645 -2.33532,1.8999 -4.35628,2.982 -6.46289,3.7715 -2.10661,0.7894 -4.23547,1.356 -7.66211,2.6425 a 3.3564822,3.3564822 0 0 1 -0.38086,0.1172 c -15.21812,3.732 -27.03726,3.4839 -36.70899,-4.2656 a 3.3564822,3.3564822 0 0 1 -0.45312,-0.4375 c 0.46845,0.5478 0.1812,0.1906 0.0293,0.061 -0.15191,-0.13 -0.38304,-0.3233 -0.65625,-0.5488 -0.54643,-0.451 -1.26754,-1.0384 -1.99219,-1.6289 -0.72466,-0.5905 -1.45236,-1.1845 -2.03516,-1.6699 -0.2914,-0.2427 -0.54578,-0.4558 -0.76172,-0.6445 -0.21593,-0.1888 -0.16645,0 -0.78125,-0.7891 a 3.3564822,3.3564822 0 0 1 -0.50781,-3.1797 c 0.4526,-1.2712 0.93215,-2.1715 1.27344,-2.8066 0.34129,-0.6352 0.54644,-1.0061 0.84375,-1.8594 4.32896,-12.4245 15.1682,-21.9065 29.30078,-32.2871 -0.0611,-0.7295 -0.40126,-1.8246 -0.89844,-2.7949 z"
         inkscape:original="M 889.25 1568 C 883.38394 1568.1867 877.35518 1568.8303 871.25 1570 C 834.57185 1577.0272 809.74994 1599.8595 815.8125 1621 C 821.87506 1642.1405 856.50935 1653.5897 893.1875 1646.5625 C 929.86565 1639.5353 954.68756 1616.703 948.625 1595.5625 C 945.88389 1586.0041 937.28652 1578.4385 925.3125 1573.6562 C 922.862 1587.5227 922.95575 1607.119 913 1615.2188 C 908.75918 1618.6689 906.9075 1618.43 899.8125 1621.0938 C 884.98311 1624.7305 874.70021 1624.4399 866 1617.4688 C 865.68701 1617.1028 860.21087 1612.7683 859.90625 1612.375 C 860.66355 1610.248 861.2899 1609.8153 862.03125 1607.6875 C 866.09989 1596.0102 876.84272 1586.6224 891.625 1575.875 C 891.78512 1572.9756 891.2259 1571.6545 889.25 1568 z "
         inkscape:radius="-3.3561466" />
      <path
         id="path3897"
         d="m 889.25,1568 c -0.29928,0.01 -0.60613,0.019 -0.90625,0.031 -17.5,11.422 -28.868,21.827 -33.234,34.394 -0.72296,2.0812 2.1101,6.8371 4.1716,8.3558 2.277,2.94 -0.27252,1.7383 2.4257,3.2943 -4.5982,-3.5321 -1.1398,-1.8641 -1.4353,-2.2457 1.3126,-3.6866 0.58962,-1.4471 1.9793,-5.1267 3.8123,-10.094 16.567,-21.517 29.374,-30.828 0.16012,-2.8994 -0.3991,-4.2205 -2.375,-7.875 z m 15.438,0.625 c 1.236,0.1439 2.4519,0.3118 3.6562,0.5 -1.201,-0.1875 -2.4242,-0.3565 -3.6562,-0.5 z m 3.875,0.5312 c 1.1391,0.181 2.2668,0.4053 3.375,0.625 -1.1132,-0.2206 -2.2308,-0.4435 -3.375,-0.625 z m 9.9688,27.813 c -0.33364,0.731 -0.6724,1.4428 -1.0312,2.1562 0.35689,-0.7097 0.69933,-1.4291 1.0312,-2.1562 z m -1.4062,2.9062 c -0.41932,0.8056 -0.85823,1.5938 -1.3125,2.375 0.44901,-0.773 0.89773,-1.5781 1.3125,-2.375 z m -1.4375,2.5625 c -0.41664,0.7099 -0.86531,1.4053 -1.3125,2.0937 0.44854,-0.6909 0.89477,-1.3812 1.3125,-2.0937 z m -3.5938,5.3437 c -0.28718,0.3752 -0.57663,0.7577 -0.875,1.125 0.298,-0.3666 0.58817,-0.7505 0.875,-1.125 z"
         sodipodi:nodetypes="ccscccsccccccccccccccccccccc"
         style="fill:#333333"
         inkscape:connector-curvature="0" />
      <path
         id="path4058"
         sodipodi:nodetypes="ccccccccccccc"
         style="fill:url(#linearGradient4210)"
         inkscape:connector-curvature="0"
         d="m 632.3,1946.1 c -24.162,0 -52.892,10.956 -63.484,26.636 -30.051,39.84 -23.547,63.235 -22.305,88.789 6.5584,4.1266 13.158,4.0516 21.161,4.7002 -3.8565,-19.271 -6.5531,-40.841 7.4351,-71.552 10.593,-15.686 35.891,-31.342 60.053,-31.338 l 84.074,16.713 c 0.16507,0.3148 0.4137,0.2198 0.5706,0.5156 -0.53254,-18.689 2.5706,-3.4801 -6.8632,-21.936 z m 47.47,99.756 c -3.6313,4.6241 -7.6066,8.9752 -11.439,13.057 3.9455,-4.1544 7.7651,-8.3841 11.439,-13.057 z" />
      <path
         id="path4068"
         sodipodi:nodetypes="cccccccc"
         style="fill:url(#linearGradient4212)"
         inkscape:connector-curvature="0"
         d="m 809.6,1966 c 4.2061,39.806 -37.774,80.684 -101.23,99.757 -8.142,2.4516 -16.363,4.578 -25.165,6.2674 -10.453,2.0086 -20.706,2.9805 -30.884,3.6553 l 6.5245,21.279 c 1.1519,4.2567 3.5009,4.8203 9.947,2.8165 87.803,-21.458 122.06,-46.834 146.53,-105.13 2.1518,-15.442 -1.1089,-17.614 -5.7193,-28.645 z" />
      <path
         id="path4167"
         sodipodi:nodetypes="ccscccsccccccccccccccccccccc"
         style="fill:url(#linearGradient4214)"
         inkscape:connector-curvature="0"
         d="m 889.25,1568 c -0.29928,0.01 -0.60613,0.019 -0.90625,0.031 -17.5,11.422 -28.868,21.827 -33.234,34.394 -0.72296,2.0812 2.1101,6.8371 4.1716,8.3558 2.277,2.94 -0.27252,1.7383 2.4257,3.2943 -4.5982,-3.5321 -1.1398,-1.8641 -1.4353,-2.2457 1.3126,-3.6866 0.58962,-1.4471 1.9793,-5.1267 3.8123,-10.094 16.567,-21.517 29.374,-30.828 0.16012,-2.8994 -0.3991,-4.2205 -2.375,-7.875 z m 15.438,0.625 c 1.236,0.1439 2.4519,0.3118 3.6562,0.5 -1.201,-0.1875 -2.4242,-0.3565 -3.6562,-0.5 z m 3.875,0.5312 c 1.1391,0.181 2.2668,0.4053 3.375,0.625 -1.1132,-0.2206 -2.2308,-0.4435 -3.375,-0.625 z m 9.9688,27.813 c -0.33364,0.731 -0.6724,1.4428 -1.0312,2.1562 0.35689,-0.7097 0.69933,-1.4291 1.0312,-2.1562 z m -1.4062,2.9062 c -0.41932,0.8056 -0.85823,1.5938 -1.3125,2.375 0.44901,-0.773 0.89773,-1.5781 1.3125,-2.375 z m -1.4375,2.5625 c -0.41664,0.7099 -0.86531,1.4053 -1.3125,2.0937 0.44854,-0.6909 0.89477,-1.3812 1.3125,-2.0937 z m -3.5938,5.3437 c -0.28718,0.3752 -0.57663,0.7577 -0.875,1.125 0.298,-0.3666 0.58817,-0.7505 0.875,-1.125 z" />
    </g>
  </g>
  <metadata
     id="metadata65">
    <rdf:RDF>
      <cc:Work>
        <dc:format>image/svg+xml</dc:format>
        <dc:type
           rdf:resource="http://purl.org/dc/dcmitype/StillImage" />
        <cc:license
           rdf:resource="http://creativecommons.org/publicdomain/zero/1.0/" />
        <dc:publisher>
          <cc:Agent
             rdf:about="http://openclipart.org/">
            <dc:title>Openclipart</dc:title>
          </cc:Agent>
        </dc:publisher>
        <dc:title>wrench</dc:title>
        <dc:date>2012-07-12T09:26:57</dc:date>
        <dc:description>A simple wrench clipart.</dc:description>
        <dc:source>https://openclipart.org/detail/171144/wrench-by-hatalar205-171144</dc:source>
        <dc:creator>
          <cc:Agent>
            <dc:title>hatalar205</dc:title>
          </cc:Agent>
        </dc:creator>
        <dc:subject>
          <rdf:Bag>
            <rdf:li>OCAL</rdf:li>
            <rdf:li>Public Domain</rdf:li>
            <rdf:li>tools</rdf:li>
            <rdf:li>wrench</rdf:li>
          </rdf:Bag>
        </dc:subject>
      </cc:Work>
      <cc:License
         rdf:about="http://creativecommons.org/publicdomain/zero/1.0/">
        <cc:permits
           rdf:resource="http://creativecommons.org/ns#Reproduction" />
        <cc:permits
           rdf:resource="http://creativecommons.org/ns#Distribution" />
        <cc:permits
           rdf:resource="http://creativecommons.org/ns#DerivativeWorks" />
      </cc:License>
    </rdf:RDF>
  </metadata>
</svg>
